<?xml version="1.0" standalone="no"?>
<!DOCTYPE svg PUBLIC "-//W3C//DTD SVG 20010904//EN"
 "http://www.w3.org/TR/2001/REC-SVG-20010904/DTD/svg10.dtd">
<svg version="1.0" xmlns="http://www.w3.org/2000/svg"
 width="450.000000pt" height="628.000000pt" viewBox="0 0 450.000000 628.000000"
 preserveAspectRatio="xMidYMid meet">
<metadata>
Created by potrace 1.10, written by Peter Selinger 2001-2011
</metadata>
<g transform="translate(0.000000,628.000000) scale(0.100000,-0.100000)"
fill="#000000" stroke="none">
<path d="M2180 5810 l0 -290 -75 0 -75 0 0 -65 c0 -60 -1 -65 -21 -62 -12 1
-24 -4 -26 -10 -3 -7 2 -13 11 -13 13 0 16 -14 16 -77 0 -43 0 -309 0 -590 0
-282 2 -513 5 -513 3 0 10 11 15 25 8 21 16 25 50 25 25 0 40 -5 40 -12 0 -9
4 -8 10 2 8 12 10 10 10 -8 0 -13 4 -21 9 -18 9 6 12 56 4 70 -3 4 -9 2 -14
-5 -6 -9 -8 2 -7 31 0 27 3 35 5 20 3 -14 13 -32 22 -41 17 -16 18 -15 19 12
0 19 -4 29 -14 29 -8 0 -14 4 -14 10 0 5 7 7 15 4 8 -4 15 -1 15 4 0 6 -10 12
-22 14 -13 2 -23 11 -24 21 -2 13 -1 14 3 2 4 -13 7 -14 21 -3 13 11 15 11 7
-2 -4 -8 -4 -12 0 -7 19 17 13 37 -11 37 -17 0 -24 6 -24 20 0 20 1 20 35 -2
19 -13 35 -31 35 -40 0 -10 5 -18 11 -18 5 0 7 6 3 13 -6 10 -4 10 7 0 16 -16
33 -17 23 -1 -5 7 -3 8 6 3 7 -4 16 -2 21 6 6 10 9 5 9 -15 0 -27 1 -28 18
-14 35 31 46 30 16 -1 l-31 -33 40 -39 41 -39 -37 -38 -37 -38 30 -29 30 -29
0 25 c0 14 5 30 10 35 7 7 9 188 8 532 -2 287 0 522 5 522 4 0 7 34 7 75 0 43
4 75 10 75 6 0 10 7 10 15 0 9 -8 14 -22 12 -22 -2 -23 1 -19 61 l3 62 -81 0
-81 0 0 290 c0 187 -4 290 -10 290 -6 0 -10 -103 -10 -290z m128 -333 c16 -22
42 -115 42 -154 0 -74 -10 -79 -161 -77 -72 2 -136 7 -141 12 -16 16 6 204 26
221 24 20 218 18 234 -2z m-128 -263 c0 -9 -5 -14 -12 -12 -18 6 -21 28 -4 28
9 0 16 -7 16 -16z m45 -4 c-20 -22 -31 -20 -22 5 4 8 14 15 23 15 16 0 16 -2
-1 -20z m45 -13 c0 -16 -3 -18 -12 -9 -22 22 -32 12 -10 -11 26 -28 32 -78 7
-57 -12 10 -13 15 -3 28 11 13 10 14 -8 4 -12 -6 -23 -9 -26 -7 -3 3 -5 -2 -5
-10 0 -8 3 -12 7 -10 4 3 15 -4 25 -15 10 -11 13 -20 7 -20 -6 0 -14 5 -17 10
-3 6 -11 10 -17 10 -5 0 0 -9 13 -20 l24 -19 -27 -1 c-27 0 -28 1 -25 55 2 41
9 61 27 79 26 28 40 26 40 -7z m80 7 c0 -17 -12 -18 -28 -2 -18 18 -15 27 8
21 11 -3 20 -12 20 -19z m-290 1 c-7 -8 -16 -15 -21 -15 -5 0 -9 7 -9 15 0 9
9 15 21 15 18 0 19 -2 9 -15z m60 -5 c0 -16 -7 -20 -37 -20 -35 0 -36 0 -18
20 10 11 26 20 37 20 11 0 18 -7 18 -20z m57 -58 c0 -22 -7 -42 -16 -50 -14
-11 -14 -11 2 -6 9 3 17 1 17 -5 0 -12 -11 -14 -34 -5 -22 8 -20 23 6 51 13
14 17 23 9 23 -8 0 -11 8 -8 19 3 14 1 18 -9 14 -9 -3 -14 2 -14 18 l0 22 23
-21 c17 -16 24 -34 24 -60z m138 58 c18 -20 17 -20 -8 -20 -20 0 -27 5 -27 20
0 11 4 20 8 20 5 0 17 -9 27 -20z m-195 -59 c0 -43 -13 -45 -50 -6 l-34 35 42
0 c40 0 42 -2 42 -29z m195 -1 c-33 -35 -23 -41 12 -8 l24 22 -3 -64 -3 -65
-32 -3 c-30 -3 -33 -1 -33 24 0 25 1 26 18 12 36 -31 46 -30 16 3 -21 23 -31
46 -33 72 -2 36 -1 37 30 37 l33 0 -29 -30z m-246 -77 c-18 -18 -28 -33 -23
-33 6 0 21 11 34 25 31 33 40 32 40 -6 0 -29 -1 -30 -42 -27 l-43 3 -3 63 -3
64 36 -28 36 -27 -32 -34z m94 -23 c4 0 5 5 2 10 -3 6 -2 10 4 10 5 0 9 -9 8
-20 -2 -30 -47 -28 -47 2 0 17 3 19 12 10 7 -7 16 -12 21 -12z m52 11 c-9 -15
16 -24 28 -11 9 10 9 11 -2 5 -9 -5 -12 -4 -7 3 9 15 36 4 36 -14 0 -10 -10
-14 -35 -12 -26 1 -35 7 -35 20 0 10 5 18 11 18 5 0 8 -4 4 -9z m-95 -71 c0
-33 -11 -38 -30 -14 -8 8 -23 20 -34 26 -15 7 -11 0 12 -24 l32 -34 -35 -34
-35 -34 0 65 c0 36 3 69 7 72 3 4 24 7 45 7 36 0 38 -2 38 -30z m44 14 c-16
-13 -16 -15 -1 -10 9 3 17 1 17 -4 0 -5 -11 -9 -25 -8 -36 3 -34 38 2 38 26 0
26 -1 7 -16z m104 -1 c-4 -23 -68 -30 -68 -7 0 10 5 12 13 7 6 -4 21 -9 32
-10 16 -2 17 -1 5 6 -8 5 -18 7 -22 5 -4 -3 -8 0 -8 5 0 6 12 11 26 11 19 0
25 -5 22 -17z m80 -51 l3 -64 -36 28 -36 27 33 35 c31 33 23 36 -14 4 -17 -14
-18 -13 -18 12 0 25 3 27 33 24 l32 -3 3 -63z m-168 7 c0 -6 -8 -8 -17 -5 -17
6 -17 5 0 -8 24 -19 17 -61 -11 -62 -16 -1 -22 4 -22 20 1 21 1 21 15 2 8 -11
17 -17 20 -14 3 2 -4 13 -15 23 -23 21 -26 41 -7 48 21 9 37 7 37 -4z m80 -8
c18 -34 12 -60 -14 -67 -35 -8 -44 0 -44 46 -1 36 2 40 23 40 14 0 29 -8 35
-19z m-140 -41 c0 -28 -3 -30 -37 -30 l-37 0 29 30 c16 17 32 30 37 30 4 0 8
-13 8 -30z m190 -5 l23 -25 -26 0 c-22 0 -27 5 -27 25 0 14 1 25 3 25 2 0 14
-11 27 -25z m-190 -72 c0 -18 -4 -33 -8 -33 -4 0 -23 16 -42 35 l-33 34 41 -2
c40 -1 42 -3 42 -34z m55 27 c-4 -6 -11 -7 -17 -4 -6 4 -8 2 -5 -3 4 -6 0 -16
-8 -23 -12 -10 -15 -9 -15 8 0 20 12 30 38 31 7 1 10 -4 7 -9z m65 -5 c-7 -8
-16 -12 -21 -9 -16 10 -9 -8 9 -23 16 -14 16 -14 -2 -9 -16 6 -17 4 -6 -9 15
-17 35 -21 24 -3 -4 7 -3 8 5 4 17 -11 3 -26 -24 -26 -22 0 -24 4 -22 45 1 40
4 45 26 45 20 0 21 -2 11 -15z m100 12 c0 -2 -13 -16 -30 -32 l-30 -29 0 32
c0 29 3 32 30 32 17 0 30 -1 30 -3z m-70 -32 c0 -18 -4 -23 -15 -19 -25 10
-19 33 13 43 1 1 2 -10 2 -24z m-202 -72 c-18 -18 -27 -33 -22 -33 6 0 21 11
34 25 31 33 40 32 40 -6 0 -29 -1 -30 -42 -27 l-43 3 -3 63 -3 64 35 -28 35
-29 -31 -32z m278 -29 c-3 -8 -19 -14 -36 -14 -26 0 -30 4 -30 27 0 24 1 25
18 11 36 -31 46 -29 15 3 l-32 33 32 27 32 27 3 -50 c2 -28 1 -57 -2 -64z
m-166 92 c0 -19 -44 -50 -48 -36 -4 12 26 50 40 50 4 0 8 -6 8 -14z m-2 -66
c-2 -34 -5 -40 -25 -40 -17 0 -23 6 -23 22 0 17 3 19 12 10 17 -17 33 -15 18
3 -9 10 -9 15 -1 15 6 0 10 3 10 8 -2 12 1 22 6 22 3 0 5 -18 3 -40z m52 1 c0
-5 -7 -14 -15 -21 -13 -10 -15 -9 -15 9 0 12 6 21 15 21 8 0 15 -4 15 -9z m40
-22 c0 -14 -7 -19 -27 -19 l-28 0 25 21 c14 11 19 17 11 13 -9 -5 -12 -3 -7 5
10 16 26 4 26 -20z m-150 -59 c0 -33 -11 -38 -30 -14 -8 8 -23 20 -34 26 -15
7 -11 0 12 -24 l32 -34 -35 -34 -35 -34 0 65 c0 36 3 69 7 72 3 4 24 7 45 7
36 0 38 -2 38 -30z m60 -6 c0 -31 -2 -35 -15 -24 -11 9 -12 17 -4 34 10 17 9
19 -2 9 -18 -17 -29 -16 -29 2 0 9 9 15 25 15 22 0 25 -4 25 -36z m90 21 c0
-20 -20 -29 -33 -15 -9 10 -8 12 6 7 10 -4 16 -3 12 2 -5 8 -45 12 -45 4 0 -7
44 -42 49 -38 4 2 7 -15 6 -38 0 -40 -2 -42 -30 -42 l-30 0 -3 66 -3 66 36 1
c24 1 35 -3 35 -13z m78 -56 l3 -67 -35 31 -35 32 32 34 32 34 -32 -22 -33
-22 0 26 c0 24 3 26 33 23 l32 -3 3 -66z m-170 -23 c4 -19 -19 -21 -36 -4 -7
7 -12 21 -12 31 0 18 2 18 23 5 12 -9 23 -23 25 -32z m-58 -16 c0 -28 -3 -30
-37 -30 l-37 0 29 30 c16 17 32 30 37 30 4 0 8 -13 8 -30z m190 -5 l23 -25
-26 0 c-22 0 -27 5 -27 25 0 14 1 25 3 25 2 0 14 -11 27 -25z m-138 -10 c10 6
10 5 2 -4 -14 -15 -44 -3 -44 18 1 14 2 14 15 -3 8 -11 19 -15 27 -11z m-52
-60 c0 -19 -4 -35 -8 -35 -4 0 -23 16 -42 35 l-34 35 42 0 c41 0 42 -1 42 -35z
m29 21 c9 -10 8 -16 -4 -26 -13 -11 -15 -8 -15 14 0 30 3 32 19 12z m96 4 c-3
-5 -13 -10 -21 -10 -8 0 -14 -4 -14 -10 0 -16 12 -12 37 12 l23 21 0 -34 c0
-41 -15 -59 -47 -59 -20 0 -22 4 -20 45 1 40 4 45 25 45 13 0 20 -4 17 -10z
m70 -20 c-33 -35 -23 -41 12 -8 l24 22 -3 -64 -3 -65 -32 -3 c-30 -3 -33 -1
-33 24 0 25 1 26 18 12 36 -31 46 -30 16 3 -21 23 -31 46 -33 72 -2 36 -1 37
30 37 l33 0 -29 -30z m-247 -77 c-18 -18 -27 -33 -22 -33 6 0 21 11 34 25 31
33 40 32 40 -6 0 -29 -1 -30 -42 -27 l-43 3 -3 63 -3 64 35 -28 35 -29 -31
-32z m112 63 c0 -7 -11 -21 -25 -30 -29 -19 -35 -3 -8 26 19 21 33 23 33 4z
m44 -78 l-19 -22 27 17 c34 21 38 21 38 -2 0 -21 -43 -34 -59 -18 -19 19 -13
47 11 47 21 0 21 0 2 -22z m-104 -68 c0 -33 -11 -38 -30 -14 -8 8 -23 20 -34
26 -15 7 -11 0 12 -24 l32 -34 -35 -34 -35 -34 0 65 c0 36 3 69 7 72 3 4 24 7
45 7 36 0 38 -2 38 -30z m0 -80 c0 -28 -3 -30 -37 -30 l-37 0 29 30 c16 17 32
30 37 30 4 0 8 -13 8 -30z"/>
<path d="M2240 4915 c-7 -8 -16 -13 -19 -10 -4 2 -8 -1 -8 -8 0 -7 8 -13 18
-13 10 0 15 4 12 9 -2 4 1 14 7 22 7 8 10 15 7 15 -2 0 -10 -7 -17 -15z"/>
<path d="M2232 4600 c-12 -12 -22 -22 -22 -23 0 -1 12 -3 27 -4 17 -1 22 2 13
7 -11 7 -11 11 -1 24 19 22 9 20 -17 -4z"/>
<path d="M2222 4503 c-10 -4 -8 -8 5 -18 18 -13 33 -11 33 5 0 11 -22 18 -38
13z"/>
<path d="M2670 4617 c0 -70 -4 -106 -10 -102 -6 4 -10 -15 -10 -49 0 -34 5
-57 13 -60 10 -5 10 -7 0 -12 -7 -3 -13 -18 -13 -34 0 -16 6 -31 13 -34 10 -5
10 -7 0 -12 -9 -4 -13 -28 -13 -70 l0 -64 -90 0 c-73 0 -90 -3 -90 -15 0 -11
-12 -15 -50 -15 l-50 0 6 -82 c4 -46 12 -86 18 -90 8 -6 7 -11 -3 -17 -26 -17
-5 -495 35 -803 16 -123 17 -128 40 -128 17 0 24 -6 24 -20 0 -11 -4 -20 -10
-20 -6 0 -10 -30 -10 -70 0 -38 4 -70 9 -70 4 0 11 -26 14 -57 18 -200 221
-842 367 -1164 28 -63 54 -122 57 -131 4 -14 19 -18 72 -20 l66 -3 3 -52 c3
-48 1 -53 -17 -53 -31 0 -28 -63 7 -125 16 -27 43 -77 61 -110 18 -33 74 -126
124 -208 68 -112 93 -145 102 -137 23 19 123 232 149 318 62 199 59 130 63
1510 l4 1262 -37 0 c-33 0 -36 2 -32 24 5 24 4 25 -74 28 -67 3 -77 1 -71 -12
3 -8 6 -30 5 -47 -2 -27 2 -33 18 -33 19 0 22 -7 36 -75 2 -11 1 -14 -2 -7 -3
6 -12 12 -19 12 -19 0 -27 30 -13 47 10 12 9 14 -3 13 -7 -1 -42 -2 -76 -1
l-63 1 0 205 0 205 -135 0 -135 0 0 -68 0 -68 -35 0 -35 0 0 203 c0 129 -4
203 -10 203 -6 0 -10 43 -10 108 l0 107 -95 0 -95 0 0 -108z m140 73 c0 -5 -7
-10 -15 -10 -8 0 -15 5 -15 10 0 6 7 10 15 10 8 0 15 -4 15 -10z m-28 -26 c18
-17 18 -18 -3 -40 -24 -25 -19 -41 18 -55 18 -6 24 -15 21 -32 -3 -24 -40 -34
-84 -23 -23 6 -24 11 -24 85 0 43 3 80 6 84 10 9 45 -1 66 -19z m38 -62 c0 -4
-9 -8 -20 -9 -11 -1 -20 2 -20 8 0 5 9 9 20 9 11 0 20 -4 20 -8z m-50 -121 c0
-10 -38 -18 -62 -13 -34 7 -18 22 22 22 22 0 40 -4 40 -9z m58 -2 c-2 -6 -7
-10 -11 -10 -4 1 -14 1 -22 1 -8 0 -15 5 -15 10 0 6 12 10 26 10 14 0 24 -5
22 -11z m-8 -74 c0 -8 -4 -15 -10 -15 -5 0 -10 7 -10 15 0 8 5 15 10 15 6 0
10 -7 10 -15z m20 -58 c0 -21 -5 -47 -10 -57 -8 -15 -7 -18 3 -14 9 3 13 -6
14 -31 1 -19 0 -35 -2 -35 -1 0 -14 17 -27 38 -20 30 -23 42 -15 60 8 17 6 26
-6 40 -25 27 -21 37 13 37 28 0 30 -2 30 -38z m-130 13 c0 -5 -11 -9 -25 -8
-14 1 -25 6 -25 10 0 4 11 8 25 8 14 0 25 -4 25 -10z m60 -5 c0 -8 -4 -15 -9
-15 -13 0 -22 16 -14 24 11 11 23 6 23 -9z m30 -36 c0 -5 -7 -9 -15 -9 -15 0
-20 12 -9 23 8 8 24 -1 24 -14z m-60 -5 c0 -9 -5 -14 -12 -12 -18 6 -21 28 -4
28 9 0 16 -7 16 -16z m-32 -42 c2 -7 -3 -12 -12 -12 -9 0 -16 7 -16 16 0 17
22 14 28 -4z m62 3 c0 -8 4 -15 10 -15 5 0 7 -7 4 -15 -4 -8 -11 -15 -16 -15
-6 0 -8 7 -4 15 3 8 1 15 -4 15 -6 0 -10 7 -10 15 0 8 5 15 10 15 6 0 10 -7
10 -15z m-40 -43 c0 -8 -6 -12 -13 -9 -10 4 -12 -3 -9 -25 4 -23 1 -29 -9 -26
-8 3 -14 10 -13 16 1 7 2 23 3 36 1 18 6 24 21 23 11 -1 20 -8 20 -15z m48
-47 c0 -14 -4 -25 -8 -25 -10 0 -20 37 -12 44 12 12 20 5 20 -19z m296 19 c20
-8 21 -24 1 -24 -9 0 -12 -6 -9 -15 4 -8 1 -15 -5 -15 -6 0 -11 14 -11 30 0
32 1 33 24 24z m77 -4 c10 0 19 -4 19 -10 0 -5 -16 -10 -35 -10 -25 0 -35 4
-35 16 0 11 5 14 16 10 9 -3 24 -6 35 -6z m-141 -25 c0 -14 -4 -25 -10 -25 -5
0 -10 11 -10 25 0 14 5 25 10 25 6 0 10 -11 10 -25z m30 5 c0 -11 -4 -20 -10
-20 -5 0 -10 9 -10 20 0 11 5 20 10 20 6 0 10 -9 10 -20z m-200 0 c0 -5 -4
-10 -9 -10 -5 0 -16 -3 -25 -6 -11 -4 -16 -1 -16 10 0 10 9 16 25 16 14 0 25
-4 25 -10z m-133 -36 c8 -22 25 -16 18 6 -5 15 -2 20 10 20 13 0 16 -6 11 -25
-5 -18 -3 -24 6 -23 8 2 12 -6 11 -22 -2 -18 4 -28 22 -36 26 -13 35 -7 49 30
6 18 7 18 29 -3 29 -27 67 -27 101 0 15 12 30 18 33 15 14 -14 12 -48 -3 -71
-19 -29 -11 -45 21 -45 37 0 39 -17 5 -46 l-30 -27 22 -24 c17 -19 24 -21 36
-10 13 10 14 8 8 -17 -14 -56 53 -65 96 -14 25 31 27 31 33 13 4 -11 11 -28
16 -37 5 -10 6 -24 3 -32 -7 -19 24 -66 43 -66 9 0 13 -6 9 -15 -3 -8 -1 -15
4 -15 6 0 10 -11 10 -25 0 -23 -2 -24 -20 -15 -30 16 -37 7 -37 -52 0 -29 2
-40 4 -23 3 16 10 33 16 37 9 6 8 11 -3 17 -8 6 -11 13 -8 17 4 3 14 0 22 -9
8 -8 12 -17 9 -21 -4 -3 3 -6 15 -6 14 0 20 5 16 14 -8 22 27 24 64 4 17 -10
34 -18 37 -18 3 0 13 0 22 0 14 0 14 -3 5 -12 -10 -10 -15 -10 -22 2 -8 12
-10 12 -10 1 0 -8 -6 -11 -15 -7 -13 4 -13 2 -5 -14 16 -30 12 -35 -10 -10
-11 13 -20 20 -20 16 0 -4 9 -19 20 -33 11 -14 20 -20 20 -13 0 7 6 10 13 7 7
-2 23 4 36 14 13 11 19 19 14 19 -5 0 -9 16 -9 35 0 26 4 34 14 30 7 -2 10 0
7 5 -3 5 0 16 6 23 10 10 18 11 36 3 26 -12 31 -51 8 -60 -19 -7 -19 -30 -1
-45 10 -9 15 -36 16 -94 0 -45 1 -100 2 -122 0 -22 0 -347 -1 -722 -1 -520 -4
-683 -13 -683 -9 0 -9 -3 0 -12 7 -7 12 -21 12 -31 0 -17 -2 -18 -17 -6 -11 9
-9 3 5 -15 22 -29 29 -52 13 -41 -14 8 -18 -44 -8 -85 9 -32 3 -370 -7 -430
-2 -14 -7 -42 -10 -63 -11 -71 -55 -214 -86 -280 -16 -36 -30 -68 -30 -72 0
-11 -40 -65 -48 -65 -10 0 -129 188 -174 275 -9 17 -33 61 -53 99 -37 68 -38
69 -25 125 6 31 14 66 16 78 7 36 -35 74 -86 80 -25 3 -50 10 -57 16 -10 10
-31 55 -108 232 -67 154 -162 424 -204 580 -12 44 -27 90 -33 102 -6 12 -8 29
-4 38 3 9 2 13 -3 10 -5 -3 -12 -1 -15 4 -4 5 -2 12 2 15 5 3 -1 36 -13 73
-12 37 -27 102 -34 143 -6 41 -16 97 -21 123 -13 64 -12 94 2 135 12 33 12 35
-20 61 -30 26 -33 34 -46 132 -32 235 -44 461 -26 495 11 20 11 29 -4 57 -17
31 -18 77 -6 242 0 6 -4 32 -8 59 -16 88 -11 91 160 102 46 3 81 11 88 19 13
15 49 8 57 -11z m133 6 c0 -5 -7 -10 -15 -10 -8 0 -15 5 -15 10 0 6 7 10 15
10 8 0 15 -4 15 -10z m350 -25 c0 -40 -2 -41 -30 -18 -32 28 -25 45 23 52 4 0
7 -15 7 -34z m-150 0 c0 -8 -4 -15 -10 -15 -5 0 -10 7 -10 15 0 8 5 15 10 15
6 0 10 -7 10 -15z m-225 -31 c1 -14 -5 -24 -12 -24 -12 0 -13 13 -4 59 3 14
16 -15 16 -35z m233 -6 c-6 -18 -28 -21 -28 -4 0 9 7 16 16 16 9 0 14 -5 12
-12z m72 -3 c0 -8 -4 -15 -10 -15 -5 0 -10 7 -10 15 0 8 5 15 10 15 6 0 10 -7
10 -15z m-50 -30 c0 -8 -4 -15 -9 -15 -13 0 -22 16 -14 24 11 11 23 6 23 -9z
m47 -38 c1 -21 -3 -27 -19 -27 -14 0 -18 5 -14 16 3 9 6 22 6 31 0 26 25 8 27
-20z m-87 -2 c0 -8 -7 -15 -15 -15 -8 0 -15 7 -15 15 0 8 7 15 15 15 8 0 15
-7 15 -15z m38 3 c-6 -18 -28 -21 -28 -4 0 9 7 16 16 16 9 0 14 -5 12 -12z
m92 -4 c0 -17 -22 -14 -28 4 -2 7 3 12 12 12 9 0 16 -7 16 -16z m23 -84 c-3
-17 -10 -33 -14 -36 -15 -9 -22 25 -9 41 6 7 11 22 10 32 -4 32 1 39 10 15 5
-12 7 -36 3 -52z m-73 19 c0 -5 -11 -9 -25 -9 -24 0 -32 10 -19 22 8 8 44 -3
44 -13z m40 6 c0 -8 -4 -15 -10 -15 -5 0 -10 7 -10 15 0 8 5 15 10 15 6 0 10
-7 10 -15z m-90 -38 c0 -7 -11 -14 -25 -15 -16 -1 -25 3 -25 13 0 9 10 15 25
15 14 0 25 -6 25 -13z m30 -2 c0 -8 -4 -15 -10 -15 -5 0 -10 7 -10 15 0 8 5
15 10 15 6 0 10 -7 10 -15z m304 -55 c6 0 5 5 -2 12 -19 19 -15 24 23 26 23 2
35 -2 35 -10 0 -7 3 -23 6 -35 4 -14 2 -23 -5 -23 -6 0 -11 9 -11 19 0 21 -17
37 -28 26 -3 -3 0 -10 8 -15 12 -8 11 -10 -7 -10 -36 0 -53 11 -52 34 0 21 0
21 11 -1 6 -13 16 -23 22 -23z m-304 -15 c0 -8 -4 -15 -10 -15 -5 0 -10 7 -10
15 0 8 5 15 10 15 6 0 10 -7 10 -15z m40 5 c0 -5 -7 -10 -15 -10 -8 0 -15 5
-15 10 0 6 7 10 15 10 8 0 15 -4 15 -10z m359 -42 c-13 -24 -15 -23 -13 10 3
38 3 39 13 23 6 -9 6 -22 0 -33z m-45 -1 c-1 -9 3 -17 10 -17 6 0 4 -5 -4 -10
-8 -5 -19 -10 -25 -10 -5 0 -3 5 5 10 12 8 12 10 -5 11 -20 0 -20 0 0 9 17 7
17 9 3 9 -10 1 -18 6 -18 12 0 6 8 9 18 7 9 -2 16 -11 16 -21z m-134 -29 c0
-10 -8 -18 -17 -19 -12 -1 -10 -4 7 -9 l25 -8 -25 -2 c-22 -1 -23 -2 -6 -9 16
-6 17 -9 5 -13 -17 -7 -41 23 -31 39 4 5 14 13 22 16 8 3 -6 6 -32 6 -27 1
-48 5 -48 10 0 5 23 8 50 8 41 -1 50 -5 50 -19z m50 -52 c-7 -9 -9 -16 -4 -16
5 0 1 -7 -9 -15 -20 -14 -47 -10 -47 7 0 6 7 8 15 4 15 -5 20 13 15 59 -2 19
-1 19 21 -2 19 -18 20 -24 9 -37z m136 40 c15 -16 18 -26 6 -26 -4 0 -13 9
-20 20 -14 23 -7 26 14 6z m-56 -17 c0 -5 5 -7 10 -4 6 3 10 1 10 -4 0 -6 -9
-11 -20 -11 -16 0 -19 -5 -14 -29 5 -21 2 -30 -12 -35 -19 -7 -42 9 -30 21 4
4 12 1 17 -7 8 -11 9 -6 5 18 -4 24 -2 34 9 38 8 4 12 10 9 15 -3 5 0 9 5 9 6
0 11 -5 11 -11z m-46 -35 c4 -10 1 -14 -6 -12 -15 5 -23 28 -10 28 5 0 13 -7
16 -16z m-976 -15 c-2 -6 -8 -10 -13 -10 -5 0 -11 4 -13 10 -2 6 4 11 13 11 9
0 15 -5 13 -11z m1098 4 c-10 -11 -36 -12 -36 -2 0 5 10 9 22 9 12 0 18 -3 14
-7z m-136 -51 c0 -12 -3 -13 -11 -5 -6 6 -18 9 -25 6 -14 -5 -19 8 -8 19 10
11 44 -4 44 -20z m157 -49 c-12 -11 -47 -10 -47 1 0 9 9 12 25 8 14 -2 24 -6
22 -9z"/>
<path d="M2660 4036 c0 -19 5 -38 10 -41 6 -4 1 -14 -12 -25 -13 -10 -21 -20
-18 -22 3 -2 24 -17 48 -33 40 -26 44 -27 59 -12 16 15 15 19 -14 55 -23 29
-29 42 -21 55 6 11 5 23 -1 35 -9 14 -10 13 -11 -10 0 -18 -5 -28 -15 -28 -10
0 -13 9 -10 30 2 17 -1 30 -6 30 -5 0 -9 -15 -9 -34z m57 -82 c2 -6 -9 -11
-27 -11 -16 0 -30 6 -30 12 0 15 52 14 57 -1z m33 -34 c0 -5 -9 -10 -20 -10
-11 0 -20 5 -20 10 0 6 9 10 20 10 11 0 20 -4 20 -10z"/>
<path d="M2560 4030 c-18 -4 -25 -13 -25 -30 0 -21 6 -26 32 -28 39 -4 74 13
67 32 -8 20 -46 33 -74 26z m34 -16 c23 -9 20 -24 -4 -24 -11 0 -20 7 -20 15
0 17 2 18 24 9z"/>
<path d="M2887 4017 c-11 -28 6 -118 23 -127 24 -13 43 10 35 42 -3 13 -7 31
-9 39 -9 52 -36 79 -49 46z m33 -17 c0 -5 -7 -10 -15 -10 -8 0 -15 5 -15 10 0
6 7 10 15 10 8 0 15 -4 15 -10z m10 -40 c0 -5 -7 -10 -15 -10 -8 0 -15 5 -15
10 0 6 7 10 15 10 8 0 15 -4 15 -10z m0 -45 c0 -8 -7 -15 -15 -15 -16 0 -20
12 -8 23 11 12 23 8 23 -8z"/>
<path d="M2494 3955 c-4 -9 -4 -19 0 -22 3 -4 6 1 6 10 0 19 15 23 23 7 3 -6
4 -5 3 2 -4 19 -25 21 -32 3z"/>
<path d="M2463 3893 c-18 -7 -16 -72 2 -79 11 -5 12 -10 4 -26 -12 -23 -5 -48
13 -48 9 0 9 3 -2 10 -12 8 -12 14 3 45 9 20 17 44 17 53 0 24 -22 51 -37 45z
m27 -51 c0 -13 -12 -22 -22 -16 -10 6 -1 24 13 24 5 0 9 -4 9 -8z"/>
<path d="M2510 3825 c-10 -13 -10 -19 3 -33 32 -35 107 -9 86 29 -12 23 -71
26 -89 4z m30 -20 c0 -8 -4 -15 -10 -15 -5 0 -10 7 -10 15 0 8 5 15 10 15 6 0
10 -7 10 -15z m50 0 c0 -17 -2 -18 -24 -9 -23 9 -20 24 4 24 11 0 20 -7 20
-15z"/>
<path d="M3004 3795 c-13 -32 23 -48 47 -19 10 13 10 17 -2 25 -21 13 -39 11
-45 -6z m36 -10 c0 -8 -7 -15 -15 -15 -8 0 -15 7 -15 15 0 8 7 15 15 15 8 0
15 -7 15 -15z"/>
<path d="M3104 3762 c-18 -11 -12 -102 7 -113 22 -12 43 13 34 42 -6 17 -4 20
12 15 27 -8 55 40 33 54 -18 12 -70 13 -86 2z m76 -27 c0 -17 -2 -18 -24 -9
-23 9 -20 24 4 24 11 0 20 -7 20 -15z m-50 -60 c0 -8 -4 -15 -10 -15 -5 0 -10
7 -10 15 0 8 5 15 10 15 6 0 10 -7 10 -15z"/>
<path d="M3013 3723 c-7 -2 -13 -14 -13 -26 -1 -40 -22 -56 -66 -50 -29 4 -43
1 -53 -11 -24 -29 -6 -46 49 -46 27 0 50 -4 50 -9 0 -12 39 -26 65 -22 43 6
49 24 30 88 -25 79 -33 88 -62 76z m27 -23 c0 -5 -7 -10 -15 -10 -8 0 -15 5
-15 10 0 6 7 10 15 10 8 0 15 -4 15 -10z m-83 -83 c-4 -14 -70 -14 -74 0 -5
13 32 21 60 15 10 -3 16 -9 14 -15z m103 13 c0 -5 -9 -10 -19 -10 -11 0 -26
-3 -35 -6 -11 -4 -16 -1 -16 10 0 12 10 16 35 16 19 0 35 -4 35 -10z m10 -40
c0 -5 -16 -10 -35 -10 -19 0 -35 5 -35 10 0 6 16 10 35 10 19 0 35 -4 35 -10z"/>
<path d="M2466 3668 c-20 -28 -20 -42 0 -59 14 -11 19 -10 36 11 22 27 20 63
-4 68 -9 2 -23 -7 -32 -20z m44 -3 c0 -8 -7 -15 -15 -15 -8 0 -15 7 -15 15 0
8 7 15 15 15 8 0 15 -7 15 -15z"/>
<path d="M3237 3613 c-2 -4 -1 -17 3 -27 6 -19 7 -19 14 -1 7 19 -8 44 -17 28z"/>
<path d="M2581 3556 c-10 -11 -8 -16 9 -21 26 -8 35 -1 27 20 -8 19 -21 19
-36 1z"/>
<path d="M1390 4225 l0 -125 -71 0 -72 0 6 40 5 40 -126 0 c-98 0 -123 -3
-114 -12 7 -7 12 -41 12 -81 l0 -69 -95 4 -95 4 0 -28 c0 -21 5 -28 20 -28 11
0 20 -4 20 -10 0 -5 -9 -10 -19 -10 -19 0 -20 -21 -23 -1217 -2 -670 0 -1267
4 -1328 14 -192 77 -401 169 -557 22 -38 41 -68 43 -68 5 0 125 194 195 313
79 135 101 183 107 232 4 41 3 45 -16 45 -19 0 -21 5 -18 53 l3 52 66 3 c66 3
66 3 82 40 8 20 40 95 71 166 160 364 357 1020 340 1128 -5 31 -4 38 10 38 13
0 16 12 16 70 0 61 -2 70 -18 70 -11 0 -18 8 -19 20 -1 16 4 20 31 20 38 0 34
-15 61 215 17 138 19 195 6 195 -13 0 -19 -48 -8 -59 8 -8 5 -15 -9 -25 -15
-12 -17 -17 -6 -27 6 -7 12 -17 12 -22 0 -5 -6 -7 -12 -4 -10 3 -13 -16 -14
-77 -1 -117 -10 -155 -40 -166 -34 -13 -49 -55 -29 -83 20 -28 19 -87 -1 -115
-11 -16 -14 -34 -10 -56 4 -20 -2 -69 -15 -122 -11 -49 -22 -98 -25 -109 -12
-59 -27 -122 -35 -140 -4 -11 -13 -40 -20 -65 -9 -39 -58 -191 -100 -310 -43
-125 -158 -405 -198 -485 -25 -49 -28 -50 -81 -58 -68 -9 -91 -34 -86 -92 5
-56 16 -95 28 -95 6 0 3 -11 -6 -25 -20 -30 -21 -46 -1 -19 8 10 15 16 15 12
0 -13 -23 -58 -31 -58 -4 0 -21 -25 -38 -55 -41 -72 -86 -150 -117 -200 -13
-22 -33 -57 -44 -77 -24 -44 -37 -53 -55 -38 -11 9 -48 76 -50 90 0 3 -3 10
-7 16 -11 17 -45 114 -66 189 -44 156 -47 193 -47 627 0 230 -4 418 -9 418 -4
0 -1 11 8 25 13 20 14 23 1 19 -11 -5 -13 1 -9 28 3 18 5 317 5 663 -1 672 3
730 45 730 11 0 19 8 20 18 1 12 1 13 -3 2 -6 -19 -23 -20 -23 0 0 14 5 16 39
19 7 1 20 21 28 46 8 25 19 50 23 55 4 6 6 31 5 57 -2 41 0 46 17 43 10 -2 16
0 13 6 -4 5 -13 9 -21 9 -20 0 -17 13 9 38 27 26 47 28 47 7 0 -8 -7 -15 -15
-15 -23 0 -18 -13 14 -35 l29 -19 -19 -28 c-16 -22 -18 -32 -9 -47 9 -18 6
-21 -22 -29 -45 -11 -47 -37 -6 -62 35 -21 68 -26 68 -10 0 13 37 13 45 0 3
-5 12 -7 21 -3 10 4 13 14 8 38 -5 27 -2 36 17 49 19 13 26 13 38 3 9 -7 23
-13 31 -12 8 1 23 3 33 3 13 2 17 9 15 25 -2 17 -11 23 -36 25 -18 2 -40 -2
-48 -9 -12 -10 -13 -7 -8 18 4 20 1 33 -10 42 -9 7 -13 18 -10 23 7 11 44 -20
44 -36 0 -20 40 -13 46 9 4 11 15 26 25 33 10 7 16 19 13 26 -3 8 -1 17 5 20
6 4 8 12 5 19 -4 11 42 47 60 47 3 0 6 -12 6 -26 0 -24 2 -26 33 -20 32 6 86
58 87 84 0 8 6 12 13 9 6 -2 11 -13 9 -25 -2 -11 2 -23 7 -27 7 -4 8 1 4 11
-5 14 -3 16 11 11 16 -6 16 -5 1 15 -17 26 -19 38 -5 38 6 0 10 -7 10 -15 0
-8 5 -15 10 -15 6 0 10 -11 10 -24 0 -14 11 -38 25 -54 22 -26 23 -30 8 -45
-13 -13 -14 -19 -3 -31 7 -9 23 -16 35 -16 15 0 25 -8 28 -22 8 -28 0 -40 -23
-33 -10 3 -21 1 -25 -6 -9 -14 13 -56 33 -64 12 -4 13 -3 3 9 -10 12 -8 17 7
25 18 9 19 8 16 -12 l-5 -22 10 23 c6 12 17 25 25 28 8 3 12 13 9 24 -6 22 15
36 30 21 24 -24 72 -6 61 23 -6 15 -14 17 -45 12 -34 -5 -39 -3 -58 27 l-20
32 22 6 c17 4 24 0 31 -18 14 -32 31 -29 54 11 17 28 18 35 6 40 -8 3 -14 12
-14 21 0 12 12 15 56 15 41 0 63 5 82 20 21 17 27 18 33 7 13 -22 -1 -55 -27
-61 -31 -8 -31 -39 0 -54 15 -7 25 -21 28 -41 5 -36 -16 -73 -36 -65 -8 3 -17
1 -21 -5 -3 -6 -1 -11 4 -11 6 0 11 -7 11 -15 0 -18 -16 -20 -23 -2 -3 6 -6 3
-6 -9 -1 -28 20 -55 45 -56 17 -2 21 -9 22 -41 2 -30 -4 -43 -25 -63 -14 -13
-23 -27 -20 -31 4 -3 7 -1 7 5 0 7 9 12 20 12 26 0 26 -17 -1 -25 -19 -6 -19
-8 -3 -19 14 -11 16 -23 10 -79 -4 -43 -2 -68 5 -72 6 -4 12 -5 15 -3 2 3 8
166 13 364 11 386 12 374 -41 374 -27 0 -28 -2 -28 -50 l0 -50 -93 0 -93 0 4
-35 4 -35 -62 0 -62 0 3 165 4 165 -122 0 -123 0 0 -125z m100 76 c0 -4 -16
-8 -35 -9 -31 -2 -44 6 -30 20 7 7 65 -3 65 -11z m80 0 c0 -6 -9 -9 -20 -8
-11 1 -20 5 -20 9 0 4 9 8 20 8 11 0 20 -4 20 -9z m-20 -33 c0 -4 -9 -8 -20
-8 -11 0 -20 4 -20 9 0 6 9 9 20 8 11 -1 20 -5 20 -9z m30 -28 c0 -5 -18 -10
-41 -10 -24 0 -38 4 -34 10 3 6 22 10 41 10 19 0 34 -4 34 -10z m-93 -20 c8
-12 9 -21 3 -25 -6 -3 -10 1 -10 9 0 9 -4 16 -10 16 -5 0 -10 5 -10 10 0 16
14 11 27 -10z m93 -11 c0 -5 -9 -9 -20 -9 -11 0 -20 4 -20 8 0 4 9 8 20 9 11
1 20 -2 20 -8z m-50 -34 c0 -8 -4 -15 -10 -15 -5 0 -10 7 -10 15 0 8 5 15 10
15 6 0 10 -7 10 -15z m50 -5 c0 -5 -9 -10 -20 -10 -11 0 -20 5 -20 10 0 6 9
10 20 10 11 0 20 -4 20 -10z m-130 -15 c0 -8 -4 -15 -9 -15 -13 0 -22 16 -14
24 11 11 23 6 23 -9z m50 -5 c0 -5 -9 -10 -20 -10 -11 0 -20 5 -20 10 0 6 9
10 20 10 11 0 20 -4 20 -10z m-290 -32 c0 -4 -7 -8 -15 -8 -8 0 -15 -4 -15
-10 0 -5 5 -9 11 -7 6 1 13 -8 15 -20 2 -13 -1 -23 -6 -23 -6 0 -10 7 -10 15
0 8 -7 15 -15 15 -8 0 -14 -5 -12 -11 1 -6 -15 -12 -36 -14 -26 -3 -37 0 -34
8 2 6 16 11 31 12 15 0 32 8 37 18 8 14 6 17 -11 17 -11 0 -19 -4 -17 -9 1 -5
-1 -9 -5 -10 -5 -1 -8 1 -8 4 0 3 0 12 0 20 0 12 11 15 45 13 25 0 45 -5 45
-10z m30 -31 c0 -7 10 -17 22 -22 17 -8 22 -20 25 -58 l3 -48 -33 3 c-30 3
-32 5 -33 43 0 22 5 44 10 48 8 6 7 10 -1 14 -7 2 -13 14 -13 24 0 11 5 17 10
14 6 -3 10 -12 10 -18z m280 -2 c0 -8 -7 -15 -15 -15 -8 0 -15 7 -15 15 0 8 7
15 15 15 8 0 15 -7 15 -15z m-70 -20 c0 -8 -7 -15 -15 -15 -8 0 -15 7 -15 15
0 8 7 15 15 15 8 0 15 -7 15 -15z m-73 -9 c-5 -14 -70 -13 -74 1 -3 7 11 11
37 10 23 -1 39 -5 37 -11z m-239 -27 c-2 -6 -8 -10 -13 -10 -5 0 -11 4 -13 10
-2 6 4 11 13 11 9 0 15 -5 13 -11z m-28 -24 c0 -16 -35 -21 -45 -6 -4 8 9 15
38 20 4 0 7 -6 7 -14z m70 4 c0 -5 5 -7 10 -4 6 3 10 -2 10 -11 0 -14 -3 -15
-12 -6 -7 7 -20 12 -30 12 -10 0 -18 5 -18 10 0 6 9 10 20 10 11 0 20 -5 20
-11z m148 -7 c2 -7 -3 -12 -12 -12 -9 0 -16 7 -16 16 0 17 22 14 28 -4z m492
8 c0 -5 -11 -10 -25 -10 -14 0 -25 5 -25 10 0 6 11 10 25 10 14 0 25 -4 25
-10z m170 -10 c0 -5 -11 -10 -25 -10 -14 0 -25 5 -25 10 0 6 11 10 25 10 14 0
25 -4 25 -10z m-190 -25 c0 -8 -4 -15 -10 -15 -5 0 -10 7 -10 15 0 8 5 15 10
15 6 0 10 -7 10 -15z m-693 -15 c-1 -12 -8 -20 -19 -20 -21 0 -22 6 -5 25 17
20 26 18 24 -5z m93 10 c19 -12 6 -25 -17 -15 -10 5 -24 7 -30 6 -7 -1 -13 3
-13 9 0 12 40 13 60 0z m-240 -10 c0 -5 -9 -10 -20 -10 -11 0 -20 5 -20 10 0
6 9 10 20 10 11 0 20 -4 20 -10z m360 -5 c0 -8 -4 -15 -10 -15 -5 0 -10 7 -10
15 0 8 5 15 10 15 6 0 10 -7 10 -15z m390 -5 c0 -5 -9 -10 -20 -10 -11 0 -20
5 -20 10 0 6 9 10 20 10 11 0 20 -4 20 -10z m-720 -20 c0 -5 -9 -10 -20 -10
-11 0 -20 5 -20 10 0 6 9 10 20 10 11 0 20 -4 20 -10z m200 -20 c0 -5 -7 -10
-15 -10 -8 0 -15 5 -15 10 0 6 7 10 15 10 8 0 15 -4 15 -10z m548 -2 c-6 -18
-28 -21 -28 -4 0 9 7 16 16 16 9 0 14 -5 12 -12z m82 -1 c0 -7 -9 -13 -20 -14
-11 -1 -20 4 -20 13 0 8 9 14 20 14 11 0 20 -6 20 -13z m-880 -12 c0 -8 -4
-15 -10 -15 -5 0 -10 7 -10 15 0 8 5 15 10 15 6 0 10 -7 10 -15z m50 0 c0 -8
-9 -15 -20 -15 -25 0 -26 17 -2 23 9 3 18 5 20 6 1 0 2 -6 2 -14z m220 -15 c0
-5 -14 -10 -31 -10 -28 0 -31 -2 -25 -25 4 -15 2 -25 -4 -25 -6 0 -8 5 -5 10
3 6 1 10 -4 10 -14 0 -14 18 1 33 14 16 68 21 68 7z m-304 -25 c-8 -21 21 -19
33 2 5 10 13 14 17 10 5 -5 4 -11 -1 -15 -20 -14 -33 -49 -24 -63 6 -10 9 -10
9 -1 0 6 7 12 15 12 25 0 17 -20 -12 -31 -35 -13 -53 -9 -70 18 -13 20 -13 21
6 16 15 -4 21 -1 21 11 0 9 -6 16 -14 16 -8 0 -18 5 -22 12 -4 7 -3 8 5 4 6
-4 14 0 17 8 3 9 11 16 16 16 6 0 8 -7 4 -15z m194 0 c0 -8 5 -15 10 -15 6 0
10 -5 10 -10 0 -6 -8 -5 -20 2 -21 13 -27 38 -10 38 6 0 10 -7 10 -15z m101
-18 c-13 -13 -26 -3 -16 12 3 6 11 8 17 5 6 -4 6 -10 -1 -17z m469 8 c0 -8 -4
-15 -10 -15 -5 0 -10 7 -10 15 0 8 5 15 10 15 6 0 10 -7 10 -15z m-360 -10 c0
-8 -9 -15 -20 -15 -25 0 -26 17 -2 23 9 3 18 5 20 6 1 0 2 -6 2 -14z m660 0
c0 -8 -4 -15 -10 -15 -5 0 -10 7 -10 15 0 8 5 15 10 15 6 0 10 -7 10 -15z
m-800 -35 c0 -5 -7 -10 -15 -10 -8 0 -15 5 -15 10 0 6 7 10 15 10 8 0 15 -4
15 -10z m805 0 c4 -6 -5 -10 -19 -10 -14 0 -26 5 -26 10 0 6 9 10 19 10 11 0
23 -4 26 -10z m-925 -31 c0 -5 -7 -9 -15 -9 -15 0 -20 12 -9 23 8 8 24 -1 24
-14z m50 1 c0 -5 -9 -10 -20 -10 -11 0 -20 5 -20 10 0 6 9 10 20 10 11 0 20
-4 20 -10z m-200 -45 c0 -8 -4 -15 -10 -15 -5 0 -10 7 -10 15 0 8 5 15 10 15
6 0 10 -7 10 -15z m-30 -30 c0 -8 -4 -15 -10 -15 -5 0 -10 7 -10 15 0 8 5 15
10 15 6 0 10 -7 10 -15z"/>
<path d="M2200 4330 c0 -18 2 -19 20 -8 11 7 20 16 20 20 0 5 -9 8 -20 8 -13
0 -20 -7 -20 -20z"/>
<path d="M2232 4312 c-39 -35 -41 -50 -4 -47 41 3 42 4 42 23 -1 16 -1 16 -14
0 -14 -19 -36 -24 -36 -9 0 5 6 11 14 14 13 5 42 47 33 47 -2 0 -18 -13 -35
-28z"/>
<path d="M2280 4275 c0 -20 5 -25 27 -25 l26 0 -23 25 c-13 14 -25 25 -27 25
-2 0 -3 -11 -3 -25z"/>
<path d="M2203 4225 c0 -8 4 -12 9 -9 5 4 20 -4 34 -17 l24 -22 0 33 c0 27 -3
31 -12 22 -15 -15 -32 -16 -23 -2 3 6 -2 10 -13 10 -10 0 -19 -7 -19 -15z"/>
<path d="M2308 4233 c-22 -3 -28 -10 -28 -31 l0 -26 30 29 c25 24 38 40 28 34
-2 -1 -15 -4 -30 -6z"/>
<path d="M2047 4220 c12 -16 7 -34 -12 -41 -6 -2 -8 -18 -5 -36 l5 -31 23 18
c13 11 24 28 25 39 1 14 5 17 12 11 7 -6 16 -5 23 2 9 9 12 9 12 -1 0 -8 7
-11 20 -8 22 6 29 -18 8 -26 -8 -3 -6 -6 4 -6 14 -1 17 7 16 34 -1 34 -7 42
-22 28 -12 -13 -80 -2 -101 15 -15 13 -17 13 -8 2z"/>
<path d="M2213 4193 c-25 -9 -14 -33 15 -33 23 1 25 2 9 11 -9 6 -15 14 -12
20 7 10 6 10 -12 2z"/>
<path d="M2090 4135 c0 -8 -6 -15 -14 -15 -7 0 -19 -7 -26 -15 -11 -14 -8 -15
25 -11 44 6 55 14 35 27 -13 8 -13 10 0 19 13 8 12 10 -2 10 -10 0 -18 -7 -18
-15z"/>
<path d="M2280 4120 c0 -27 3 -30 32 -30 l32 0 -29 30 c-16 17 -30 30 -32 30
-2 0 -3 -13 -3 -30z"/>
<path d="M2200 4124 c0 -14 3 -14 15 -4 8 7 15 14 15 16 0 2 -7 4 -15 4 -8 0
-15 -7 -15 -16z"/>
<path d="M2243 4121 c-29 -25 -29 -31 2 -31 20 0 25 5 25 25 0 30 1 29 -27 6z"/>
<path d="M2130 4115 c0 -8 7 -15 15 -15 8 0 15 4 15 9 0 5 -7 11 -15 15 -9 3
-15 0 -15 -9z"/>
<path d="M2035 4068 c-2 -7 -5 -36 -8 -65 -4 -58 1 -63 59 -63 23 0 34 5 34
15 0 9 -6 12 -15 9 -8 -4 -15 -1 -15 5 0 7 -9 5 -25 -5 -33 -22 -32 -9 3 21
l27 23 -29 31 c-17 17 -25 31 -20 31 6 0 21 -11 34 -25 28 -29 40 -32 40 -7 0
14 -2 15 -10 2 -8 -12 -10 -11 -10 7 0 12 6 24 13 26 6 3 -7 6 -31 6 -26 1
-44 -4 -47 -11z"/>
<path d="M2207 4073 c-4 -3 -7 -11 -7 -17 0 -6 4 -5 9 3 6 9 11 10 15 2 4 -6
12 -11 18 -11 7 0 6 6 -2 15 -14 16 -23 19 -33 8z"/>
<path d="M2280 4053 l0 -26 25 23 c14 13 28 20 32 16 5 -4 -4 -17 -20 -28 -15
-11 -27 -23 -27 -26 0 -4 16 -20 35 -35 l35 -28 -2 58 c-3 64 -9 73 -50 73
-24 0 -28 -4 -28 -27z"/>
<path d="M2150 4035 c0 -8 -4 -15 -10 -15 -18 0 -11 -26 14 -47 l23 -20 1 28
c0 16 -4 31 -9 34 -5 4 -9 11 -9 16 0 6 5 7 10 4 6 -3 10 -1 10 4 0 6 -7 11
-15 11 -8 0 -15 -7 -15 -15z"/>
<path d="M2200 4018 c0 -20 1 -21 20 -3 11 10 20 20 20 22 0 1 -9 3 -20 3 -14
0 -20 -7 -20 -22z"/>
<path d="M2253 4025 c-7 -7 -18 -15 -25 -18 -10 -3 -10 -7 -1 -17 9 -9 15 -6
28 14 19 29 18 42 -2 21z"/>
<path d="M1516 4021 c-4 -6 0 -11 8 -11 9 0 16 -5 16 -11 0 -6 -9 -9 -20 -6
-11 3 -18 1 -14 -4 7 -12 31 -11 40 2 3 6 0 18 -9 26 -10 10 -17 11 -21 4z"/>
<path d="M2200 3975 c0 -15 7 -21 26 -23 15 -1 23 2 19 9 -4 6 -9 8 -13 5 -3
-3 -11 2 -18 12 -12 16 -13 16 -14 -3z"/>
<path d="M2280 3965 c0 -21 5 -25 30 -25 17 0 30 1 30 3 0 2 -13 13 -30 25
l-30 23 0 -26z"/>
<path d="M1450 3949 c-21 -29 -21 -31 -5 -50 10 -10 14 -19 9 -20 -5 -1 -18
-2 -29 -3 -16 -1 -21 -9 -23 -47 -3 -51 11 -71 45 -63 31 8 36 31 11 56 -29
29 -13 54 33 50 38 -3 76 18 65 37 -5 7 -19 17 -33 22 -14 5 -23 12 -19 16 7
7 -12 33 -25 33 -4 0 -17 -14 -29 -31z m40 6 c0 -8 -4 -15 -10 -15 -5 0 -10 7
-10 15 0 8 5 15 10 15 6 0 10 -7 10 -15z m-1 -45 c6 0 11 -4 11 -10 0 -5 -5
-10 -11 -10 -15 0 -39 26 -39 42 1 9 5 7 14 -4 7 -10 18 -18 25 -18z m61 -10
c0 -5 -9 -10 -20 -10 -11 0 -20 5 -20 10 0 6 9 10 20 10 11 0 20 -4 20 -10z
m-85 -111 c-8 -12 -45 -12 -45 0 0 10 30 20 43 14 4 -3 5 -9 2 -14z"/>
<path d="M2210 3933 c-1 -4 -3 -25 -6 -45 -5 -35 -4 -38 19 -38 18 0 24 5 22
18 -1 9 4 25 13 35 18 21 9 35 -12 18 -8 -7 -13 -21 -11 -32 3 -13 0 -19 -8
-16 -14 4 -17 27 -5 44 5 6 5 14 -2 18 -5 3 -10 3 -10 -2z"/>
<path d="M2090 3923 c-72 -11 -70 -9 -70 -70 0 -44 3 -54 12 -45 20 20 32 13
13 -8 -18 -20 -17 -20 28 -20 49 0 60 14 38 49 -8 12 -12 13 -25 1 -9 -7 -20
-10 -24 -6 -4 4 1 12 11 18 18 9 17 12 -9 39 -15 16 -22 29 -16 29 7 0 20 -9
29 -20 25 -29 43 -25 43 10 0 17 -1 29 -2 29 -2 -1 -14 -3 -28 -6z"/>
<path d="M2280 3919 c0 -4 6 -9 13 -12 9 -3 8 -8 -3 -22 -11 -14 -6 -12 18 5
17 13 32 25 32 26 0 1 -13 4 -30 6 -16 3 -30 1 -30 -3z"/>
<path d="M2153 3891 c-30 -25 -29 -36 2 -39 14 -1 25 3 25 8 0 5 -7 7 -15 4
-8 -4 -15 -1 -15 5 0 6 7 11 15 11 8 0 15 7 15 15 0 19 0 19 -27 -4z"/>
<path d="M2320 3883 l-31 -28 36 -28 35 -28 0 56 c0 30 -2 55 -5 55 -3 0 -18
-12 -35 -27z"/>
<path d="M2200 3820 c0 -20 1 -20 25 -4 14 9 25 18 25 20 0 2 -11 4 -25 4 -18
0 -25 -5 -25 -20z"/>
<path d="M2280 3811 c0 -29 3 -31 35 -31 19 0 35 2 35 4 0 2 -16 16 -35 30
l-35 27 0 -30z"/>
<path d="M2243 3813 c-30 -20 -29 -33 2 -33 20 0 25 5 25 25 0 29 2 29 -27 8z"/>
<path d="M2130 3797 c1 -20 2 -20 11 -4 6 9 15 15 20 12 5 -4 7 -11 4 -16 -4
-5 -1 -9 4 -9 12 0 15 30 4 31 -5 0 -16 2 -25 4 -13 2 -18 -3 -18 -18z"/>
<path d="M2060 3740 c41 -34 54 -34 58 3 3 21 -1 27 -17 27 -10 0 -22 -6 -25
-12 -5 -10 -7 -10 -12 0 -3 6 -13 12 -22 12 -12 0 -6 -10 18 -30z"/>
<path d="M2205 3759 c-5 -8 51 -6 60 2 3 3 -9 6 -25 6 -17 0 -33 -4 -35 -8z"/>
<path d="M2280 3739 l0 -30 35 27 c19 14 35 28 35 30 0 2 -16 4 -35 4 -32 0
-35 -2 -35 -31z"/>
<path d="M2018 3695 c-2 -39 1 -56 10 -60 21 -8 32 -6 32 6 0 7 -7 8 -17 4
-12 -4 -9 3 10 22 15 16 27 32 27 35 0 4 -13 16 -29 27 l-29 21 -4 -55z"/>
<path d="M2325 3725 l-29 -24 24 -26 c29 -31 15 -34 -17 -3 l-23 21 0 -31 c0
-30 2 -32 36 -32 19 0 33 4 29 9 -3 5 0 15 7 23 8 8 11 27 8 50 l-5 36 -30
-23z"/>
<path d="M1625 3721 c-9 -29 1 -41 35 -41 41 0 60 10 60 31 0 10 -1 19 -2 20
-2 0 -22 2 -45 5 -35 5 -42 3 -48 -15z m35 -11 c0 -5 -7 -10 -15 -10 -8 0 -15
5 -15 10 0 6 7 10 15 10 8 0 15 -4 15 -10z m50 0 c0 -5 -9 -10 -20 -10 -11 0
-20 5 -20 10 0 6 9 10 20 10 11 0 20 -4 20 -10z"/>
<path d="M2200 3720 c0 -18 3 -19 20 -10 22 12 18 30 -6 30 -8 0 -14 -9 -14
-20z"/>
<path d="M1107 3710 c-12 -12 -15 -20 -8 -25 17 -10 13 -35 -5 -35 -8 0 -22 7
-31 15 -8 9 -20 14 -27 12 -23 -8 -16 -33 20 -70 29 -30 39 -35 51 -26 8 7 12
17 10 24 -3 6 13 19 34 28 45 19 49 35 17 64 -35 30 -41 32 -61 13z m33 -15
c0 -8 -4 -15 -10 -15 -5 0 -10 7 -10 15 0 8 5 15 10 15 6 0 10 -7 10 -15z
m-90 -40 c0 -8 -4 -15 -10 -15 -5 0 -10 7 -10 15 0 8 5 15 10 15 6 0 10 -7 10
-15z m58 -56 c-2 -6 -8 -10 -13 -10 -5 0 -11 4 -13 10 -2 6 4 11 13 11 9 0 15
-5 13 -11z"/>
<path d="M2130 3702 c0 -10 11 -29 25 -42 21 -20 25 -21 25 -6 0 11 -4 15 -12
10 -9 -5 -9 -2 1 9 11 14 11 20 1 32 -17 21 -40 19 -40 -3z"/>
<path d="M1249 3689 c-9 -17 -8 -23 2 -30 23 -14 76 -10 90 7 11 14 10 18 -6
30 -29 21 -72 18 -86 -7z m31 -14 c0 -8 -4 -15 -10 -15 -5 0 -10 7 -10 15 0 8
5 15 10 15 6 0 10 -7 10 -15z m50 5 c0 -5 -9 -10 -20 -10 -11 0 -20 5 -20 10
0 6 9 10 20 10 11 0 20 -4 20 -10z"/>
<path d="M2224 3699 c-9 -16 18 -30 33 -17 7 6 13 14 13 19 0 13 -38 11 -46
-2z"/>
<path d="M2078 3673 c-14 -15 -14 -20 -2 -30 24 -23 46 -16 42 14 -4 33 -19
39 -40 16z"/>
<path d="M2201 3663 c0 -10 4 -26 7 -36 7 -16 9 -16 27 -3 20 15 19 15 -4 16
-18 0 -21 3 -12 13 6 8 8 17 4 20 -12 13 -23 7 -22 -10z"/>
<path d="M1780 3635 c-10 -11 -10 -18 -1 -29 14 -16 33 -15 55 3 13 11 13 15
1 27 -18 18 -39 18 -55 -1z m50 -15 c0 -5 -9 -10 -20 -10 -11 0 -20 5 -20 10
0 6 9 10 20 10 11 0 20 -4 20 -10z"/>
<path d="M2137 3613 c-4 -3 -7 -13 -7 -22 0 -12 3 -12 12 -3 7 7 17 12 23 12
5 0 -1 -9 -15 -20 -21 -17 -23 -21 -10 -30 20 -13 40 -13 40 1 0 6 -7 8 -17 5
-15 -6 -15 -4 1 13 15 17 16 23 6 36 -14 16 -23 19 -33 8z"/>
<path d="M943 3594 c-3 -8 -1 -20 5 -26 12 -12 32 -2 31 15 0 9 -2 9 -6 0 -2
-7 -9 -13 -14 -13 -14 0 -11 28 4 33 9 4 9 6 -1 6 -7 1 -15 -6 -19 -15z"/>
<path d="M1646 3602 c-3 -5 0 -17 8 -27 17 -23 79 -12 74 13 -3 19 -72 30 -82
14z m74 -12 c0 -4 -13 -10 -30 -12 -19 -3 -30 0 -30 7 0 7 14 12 30 13 17 0
30 -3 30 -8z"/>
<path d="M2022 3601 c-9 -5 -12 -26 -10 -67 l3 -59 52 -3 53 -3 -2 41 c-1 22
-4 37 -7 33 -6 -8 -55 -43 -81 -58 -8 -4 0 7 17 26 l33 35 -27 27 c-15 15 -23
27 -17 27 6 0 21 -11 33 -24 27 -29 51 -24 51 10 0 22 -4 24 -42 24 -24 0 -49
-4 -56 -9z m88 -16 c0 -8 -4 -15 -10 -15 -5 0 -10 7 -10 15 0 8 5 15 10 15 6
0 10 -7 10 -15z"/>
<path d="M2230 3602 c0 -10 22 -32 32 -32 4 0 8 9 8 20 0 13 -7 20 -20 20 -11
0 -20 -4 -20 -8z"/>
<path d="M2280 3578 l0 -31 28 24 c15 13 31 27 37 31 5 5 -8 8 -28 8 -35 0
-37 -2 -37 -32z"/>
<path d="M2332 3573 l-33 -28 30 -29 c17 -16 33 -27 36 -24 4 3 5 29 3 57 l-3
52 -33 -28z"/>
<path d="M2200 3560 c0 -16 6 -20 33 -20 33 0 31 4 -15 31 -15 8 -18 6 -18
-11z"/>
<path d="M1024 3545 c-4 -9 -2 -21 4 -27 8 -8 9 -5 5 11 -6 24 13 30 20 6 4
-12 5 -11 3 1 -2 23 -25 30 -32 9z"/>
<path d="M2149 3508 c24 -27 17 -40 -7 -16 -9 9 -12 8 -12 -6 0 -12 6 -16 22
-14 17 2 23 10 25 31 1 15 -3 27 -8 27 -6 0 -7 -4 -4 -10 9 -14 -8 -12 -25 3
-8 6 -4 0 9 -15z"/>
<path d="M2200 3515 c0 -19 9 -19 34 0 19 14 19 15 -7 15 -17 0 -27 -5 -27
-15z"/>
<path d="M2280 3500 c0 -29 2 -30 42 -30 l42 0 -34 30 c-44 37 -50 37 -50 0z"/>
<path d="M2247 3502 c-22 -24 -21 -32 3 -32 15 0 20 7 20 25 0 30 -2 30 -23 7z"/>
<path d="M2050 3431 c38 -32 70 -28 70 9 0 17 -7 20 -52 20 l-52 0 34 -29z"/>
<path d="M2211 3451 c-9 -6 -6 -8 13 -8 14 0 23 3 20 8 -7 11 -15 11 -33 0z"/>
<path d="M2280 3436 c0 -36 11 -37 50 -5 l34 29 -42 0 c-38 0 -42 -2 -42 -24z"/>
<path d="M2004 3387 l1 -62 58 -3 c48 -3 57 0 57 14 0 9 -8 23 -17 30 -15 11
-23 9 -51 -13 -43 -33 -52 -24 -11 11 31 26 31 27 13 44 -52 46 -51 47 -50
-21z"/>
<path d="M2341 3420 l-34 -29 32 -27 c42 -35 32 -44 -12 -10 -37 28 -47 26
-47 -11 0 -20 5 -23 43 -23 23 0 47 4 52 8 6 4 8 31 5 64 l-5 56 -34 -28z"/>
<path d="M2143 3423 c-19 -7 -16 -70 3 -77 9 -4 19 -4 22 -1 3 3 -1 5 -8 5
-11 0 -11 3 -2 12 16 16 15 48 0 49 -7 0 -4 4 7 9 21 9 0 12 -22 3z"/>
<path d="M2210 3415 c0 -9 6 -12 15 -9 8 4 15 10 15 15 0 5 -7 9 -15 9 -8 0
-15 -7 -15 -15z"/>
<path d="M2104 3399 c-3 -6 -1 -16 5 -22 8 -8 11 -5 11 11 0 24 -5 28 -16 11z"/>
<path d="M2228 3396 c-15 -11 -14 -14 10 -29 28 -16 28 -15 30 14 3 32 -12 37
-40 15z"/>
<path d="M2210 3355 c0 -8 7 -15 15 -15 8 0 15 4 15 9 0 5 -7 11 -15 15 -9 3
-15 0 -15 -9z"/>
<path d="M2182 3306 c1 -14 6 -22 10 -20 12 7 10 44 -2 44 -5 0 -9 -11 -8 -24z"/>
<path d="M2225 3320 c-3 -5 -1 -10 6 -10 10 0 10 -3 1 -12 -15 -15 -15 -28 -1
-28 5 0 7 5 4 10 -3 6 -2 10 4 10 5 0 13 -4 16 -10 3 -5 1 -10 -5 -10 -6 0 -8
-4 -5 -10 3 -6 -1 -7 -9 -4 -9 3 -16 1 -16 -5 0 -12 20 -14 35 -3 17 12 17 49
0 56 -9 3 -13 10 -10 16 3 5 2 10 -4 10 -5 0 -13 -4 -16 -10z"/>
<path d="M2133 3304 c0 -8 5 -14 11 -14 6 0 5 -5 -2 -12 -7 -7 -12 -19 -12
-27 1 -12 6 -9 21 9 13 15 16 26 10 28 -6 2 -9 7 -6 12 3 4 -1 10 -8 13 -8 3
-14 -1 -14 -9z"/>
<path d="M2040 3271 c22 -18 39 -26 45 -20 16 15 28 10 15 -7 -11 -12 -10 -18
3 -32 16 -15 17 -12 16 36 l-2 52 -55 0 -56 0 34 -29z"/>
<path d="M2280 3281 c0 -11 5 -23 11 -27 8 -4 7 -9 -2 -15 -7 -4 -11 -10 -9
-12 3 -3 25 13 49 34 l44 39 -47 0 c-39 0 -46 -3 -46 -19z"/>
<path d="M1986 3234 c-3 -30 -4 -60 -1 -65 4 -5 35 -9 71 -9 71 0 84 15 38 45
-24 16 -27 15 -60 -10 -20 -15 -38 -25 -40 -22 -3 3 11 17 30 32 39 30 39 34
-3 64 l-28 20 -7 -55z"/>
<path d="M2352 3262 l-32 -27 36 -28 c19 -16 38 -27 41 -24 2 3 1 28 -4 56
l-8 50 -33 -27z"/>
<path d="M2180 3255 c0 -8 5 -15 10 -15 6 0 10 7 10 15 0 8 -4 15 -10 15 -5 0
-10 -7 -10 -15z"/>
<path d="M2140 3220 c-12 -8 -13 -13 -3 -29 8 -12 9 -21 2 -25 -5 -2 -4 -3 3
-2 7 2 13 17 14 34 1 18 1 32 0 32 -1 0 -8 -5 -16 -10z"/>
<path d="M2183 3210 c3 -10 0 -21 -7 -23 -6 -2 -9 -7 -6 -10 10 -11 40 21 34
37 -9 23 -27 20 -21 -4z"/>
<path d="M2222 3205 c2 -20 6 -24 23 -19 17 6 18 5 6 -10 -11 -14 -11 -16 2
-16 11 0 15 9 15 30 -1 22 -4 28 -12 20 -16 -16 -30 -12 -16 5 10 12 10 15 -4
15 -11 0 -15 -8 -14 -25z"/>
<path d="M2293 3213 c-7 -2 -13 -16 -13 -29 0 -22 4 -24 55 -24 30 0 55 2 55
4 0 4 -78 56 -82 55 -2 0 -9 -3 -15 -6z"/>
<path d="M2183 3163 c-20 -8 -15 -23 7 -23 11 0 20 7 20 15 0 15 -6 17 -27 8z"/>
<path d="M1977 3143 c-3 -5 -8 -32 -12 -60 -8 -61 1 -67 45 -29 l28 23 -31 32
c-17 17 -27 31 -21 31 6 0 21 -11 34 -25 13 -14 27 -25 32 -25 13 0 68 42 68
52 0 10 -137 11 -143 1z"/>
<path d="M2280 3135 c0 -8 11 -22 25 -31 25 -16 27 -16 53 10 40 38 52 32 14
-7 -31 -32 -31 -33 -11 -45 12 -8 18 -16 15 -19 -3 -3 -13 0 -21 7 -12 10 -21
10 -43 1 -26 -12 -26 -12 -8 7 17 20 17 21 -4 32 -20 11 -21 9 -18 -22 l3 -33
68 -1 68 -1 -6 51 c-4 28 -9 54 -12 59 -2 4 -31 7 -64 7 -45 0 -59 -3 -59 -15z"/>
<path d="M2170 3122 c0 -10 22 -32 32 -32 4 0 8 9 8 20 0 13 -7 20 -20 20 -11
0 -20 -4 -20 -8z"/>
<path d="M2131 3080 l1 -45 11 33 c7 24 7 36 -1 44 -9 9 -12 1 -11 -32z"/>
<path d="M2248 3103 c-16 -18 -16 -21 -1 -43 9 -13 11 -20 5 -16 -7 4 -12 2
-12 -3 0 -16 20 -13 26 3 3 8 4 29 2 46 -3 31 -3 32 -20 13z"/>
<path d="M2083 3091 l-22 -18 23 -22 c31 -29 36 -27 36 19 0 45 -5 48 -37 21z"/>
<path d="M2160 3075 c0 -9 6 -12 15 -9 8 4 15 10 15 15 0 5 -7 9 -15 9 -8 0
-15 -7 -15 -15z"/>
<path d="M2178 3056 c-26 -19 -22 -26 12 -26 23 0 30 4 30 20 0 23 -17 25 -42
6z"/>
<path d="M2016 3045 c-18 -14 -16 -15 28 -15 42 0 47 2 36 15 -16 19 -39 19
-64 0z"/>
<path d="M1946 2974 c-7 -17 0 -34 14 -34 15 0 19 28 6 40 -10 8 -15 6 -20 -6z"/>
<path d="M2019 2983 c-7 -48 -7 -66 0 -54 5 8 7 21 4 30 -5 13 -3 13 8 -1 15
-18 24 -15 48 15 12 15 10 17 -23 17 -20 0 -37 -3 -37 -7z"/>
<path d="M2150 2969 c0 -11 5 -17 10 -14 13 8 13 -8 0 -21 -7 -7 -5 -17 5 -30
14 -18 15 -15 13 33 -2 34 -7 53 -15 53 -7 0 -13 -9 -13 -21z"/>
<path d="M2199 2983 c0 -5 -2 -29 -3 -55 -1 -47 -1 -48 17 -29 19 18 19 19 1
47 -17 26 -17 28 -1 15 15 -12 17 -11 17 8 0 19 -29 32 -31 14z"/>
<path d="M2245 2980 c-6 -10 1 -14 18 -11 4 1 3 -8 -3 -19 -6 -12 -8 -31 -4
-43 4 -12 8 -28 8 -36 1 -8 7 -15 14 -17 7 -1 9 0 4 2 -5 3 -7 28 -4 57 3 39
0 56 -11 65 -10 9 -17 10 -22 2z"/>
<path d="M2301 2973 c23 -30 32 -32 47 -15 12 15 13 15 9 1 -3 -9 -1 -22 4
-30 7 -12 7 6 0 54 0 4 -17 7 -37 7 -33 0 -35 -2 -23 -17z"/>
<path d="M2412 2977 c-13 -15 1 -42 17 -33 13 9 15 33 2 40 -5 3 -13 0 -19 -7z"/>
<path d="M2107 2973 c-12 -11 -8 -101 5 -109 7 -4 8 -3 4 4 -4 6 -1 20 6 32
10 16 10 24 0 40 -14 23 -16 33 -3 25 5 -3 12 -1 16 5 7 11 -18 14 -28 3z"/>
<path d="M1981 2947 c-16 -20 -6 -56 10 -40 6 6 9 21 7 33 -3 21 -4 22 -17 7z"/>
<path d="M2290 2926 c0 -33 2 -37 15 -26 19 15 19 21 0 46 -13 18 -14 16 -15
-20z"/>
<path d="M2066 2933 c-4 -9 0 -23 9 -32 13 -14 15 -12 15 17 0 34 -14 43 -24
15z"/>
<path d="M2382 2929 c1 -13 8 -23 13 -21 15 3 12 35 -3 40 -9 3 -13 -3 -10
-19z"/>
<path d="M1936 2915 c-3 -9 -2 -13 4 -10 6 3 10 2 10 -4 0 -5 -4 -13 -10 -16
-18 -11 -10 -21 19 -23 18 -1 31 3 35 13 4 13 2 13 -14 5 -25 -14 -35 -13 -22
3 7 8 6 17 -3 30 -11 16 -13 16 -19 2z"/>
<path d="M2423 2911 c-9 -14 -9 -22 0 -31 9 -10 8 -12 -5 -7 -10 3 -20 2 -23
-4 -4 -5 6 -8 24 -7 31 2 40 12 21 23 -5 3 -10 11 -10 16 0 6 5 7 10 4 6 -3
10 -2 10 4 0 19 -16 20 -27 2z"/>
<path d="M2021 2911 c-7 -5 -11 -15 -9 -22 3 -10 8 -7 17 9 13 24 12 26 -8 13z"/>
<path d="M2351 2897 c11 -20 11 -21 -4 -8 -14 11 -20 11 -32 1 -23 -19 -18
-30 14 -30 38 0 58 41 26 54 -13 5 -14 2 -4 -17z"/>
<path d="M2140 2885 c0 -18 5 -25 20 -25 20 0 20 1 4 25 -9 14 -18 25 -20 25
-2 0 -4 -11 -4 -25z"/>
<path d="M2220 2891 c-13 -26 -13 -31 5 -31 9 0 15 9 15 25 0 30 -6 32 -20 6z"/>
<path d="M2031 2881 c-10 -17 -6 -19 29 -23 l39 -3 -21 22 c-26 28 -34 29 -47
4z"/>
<path d="M2168 2843 c18 -2 45 -2 60 0 15 2 0 4 -33 4 -33 0 -45 -2 -27 -4z"/>
<path d="M1993 2796 c5 -16 21 -17 41 -3 17 13 16 14 -13 14 -17 0 -30 -5 -28
-11z"/>
<path d="M2085 2802 c-10 -2 -29 -11 -41 -19 l-22 -14 36 -34 37 -34 8 51 c4
28 6 52 5 53 -2 1 -12 -1 -23 -3z"/>
<path d="M2189 2802 l-56 -3 -13 -77 c-72 -449 -181 -829 -339 -1177 l-30 -65
440 0 439 0 -18 38 c-36 71 -140 337 -180 462 -66 203 -117 423 -162 690 -11
69 -22 127 -23 130 -1 3 -27 4 -58 2z m48 -102 c12 -65 19 -104 47 -255 21
-115 21 -115 66 -285 43 -163 44 -166 52 -190 3 -8 16 -44 28 -80 12 -36 46
-127 76 -202 53 -133 62 -167 47 -169 -50 -7 -721 -5 -730 3 -9 7 -2 33 26
101 48 117 53 130 57 142 2 6 21 62 44 125 38 108 99 319 105 367 2 12 6 26 9
31 3 5 8 23 11 40 3 18 14 76 24 129 11 54 22 116 25 138 8 52 26 146 32 163
2 8 16 12 36 10 32 -3 33 -5 45 -68z"/>
<path d="M2274 2778 c3 -17 6 -42 6 -55 l0 -25 38 33 c30 26 36 37 28 48 -9
11 -7 13 10 7 13 -4 26 -1 32 7 9 11 5 13 -22 13 -19 -1 -32 -4 -29 -8 5 -10
5 -10 -36 2 l-33 9 6 -31z"/>
<path d="M1904 2751 l-10 -49 45 30 c25 17 48 33 50 34 11 9 -25 34 -48 34
-24 0 -28 -5 -37 -49z"/>
<path d="M2400 2785 c-7 -9 -11 -17 -9 -19 2 -1 25 -17 50 -34 l45 -30 -10 49
c-9 44 -13 49 -37 49 -14 0 -32 -7 -39 -15z"/>
<path d="M1960 2729 l-45 -29 79 0 79 0 -19 21 c-33 37 -46 38 -94 8z"/>
<path d="M2339 2730 l-34 -29 80 -1 c85 0 85 -2 14 43 -24 16 -26 16 -60 -13z"/>
<path d="M1940 2651 l35 -29 43 25 c24 14 45 23 48 20 3 -3 -13 -16 -36 -30
l-41 -24 40 -33 c23 -17 41 -30 41 -27 0 2 5 28 10 57 13 67 9 70 -95 70 l-79
0 34 -29z"/>
<path d="M2302 2672 c-10 -7 -10 -19 0 -66 l13 -57 38 32 38 32 -41 24 c-23
14 -39 27 -36 30 3 3 24 -6 48 -20 l43 -25 35 29 34 29 -79 0 c-44 0 -86 -4
-93 -8z"/>
<path d="M1885 2658 c-17 -52 -25 -102 -17 -110 5 -5 48 -8 95 -6 l87 3 -36
29 -37 29 -49 -27 c-63 -36 -75 -27 -13 9 45 27 45 28 28 47 -27 30 -52 41
-58 26z"/>
<path d="M2451 2642 l-34 -28 47 -28 c63 -37 52 -46 -12 -10 l-49 27 -37 -29
-36 -29 87 -3 c47 -2 90 1 94 5 9 9 -11 123 -21 123 -3 0 -21 -13 -39 -28z"/>
<path d="M1836 2464 c-9 -35 -16 -65 -16 -68 0 -4 67 34 109 61 2 1 -11 14
-28 29 -42 35 -32 43 13 9 l35 -27 46 27 c25 15 48 25 51 22 3 -3 -15 -17 -41
-32 l-46 -28 33 -28 c41 -35 29 -38 -15 -5 l-32 25 -50 -30 -50 -29 96 1 97 2
11 58 c7 33 9 64 6 70 -4 6 -46 9 -105 8 l-98 -1 -16 -64z"/>
<path d="M2324 2517 c-2 -7 1 -39 8 -69 l13 -56 38 33 38 33 -46 27 c-26 15
-44 29 -41 32 3 3 26 -7 50 -21 48 -28 67 -26 96 8 7 9 18 16 24 16 6 0 -4
-14 -21 -30 -40 -36 -41 -44 -5 -36 16 4 22 3 14 -2 -9 -6 -2 -16 27 -35 48
-32 55 -33 43 -9 -5 9 -15 40 -21 68 l-12 52 -100 1 c-76 2 -100 -1 -105 -12z"/>
<path d="M2396 2417 l-38 -32 87 3 c48 2 85 5 83 6 -1 2 -24 15 -49 30 l-46
26 -37 -33z"/>
<path d="M1792 2306 c-13 -42 -15 -63 -8 -68 19 -13 203 -9 213 5 12 15 36
108 29 114 -2 2 -27 -9 -55 -25 l-52 -29 36 -28 c20 -15 34 -29 31 -32 -3 -3
-22 7 -42 22 l-37 28 -54 -27 c-31 -15 -58 -25 -60 -22 -3 2 19 17 48 31 l53
27 -35 29 c-41 35 -29 39 16 5 l31 -24 50 29 49 29 -98 -1 -97 -2 -18 -61z"/>
<path d="M2425 2341 l50 -30 33 26 c18 14 36 23 38 20 3 -3 -8 -16 -25 -28
l-31 -23 50 -29 c67 -38 58 -46 -13 -11 l-54 27 -37 -28 c-20 -15 -39 -25 -42
-22 -3 3 11 17 31 32 l36 28 -52 29 c-28 16 -52 28 -54 26 -5 -5 19 -101 28
-115 9 -14 193 -18 214 -5 9 6 8 22 -6 67 l-19 60 -98 3 -99 3 50 -30z"/>
<path d="M1773 2212 c-10 -6 -53 -112 -53 -129 0 -4 107 53 119 64 3 2 -11 17
-30 33 -42 36 -28 39 18 4 l35 -26 54 27 c70 36 81 27 13 -10 l-52 -28 24 -19
c43 -33 59 -40 63 -26 2 7 11 34 19 60 14 41 14 47 0 52 -22 9 -196 7 -210 -2z"/>
<path d="M2459 2190 c30 -17 56 -30 58 -30 2 0 22 14 45 30 l41 30 -99 0 -99
0 54 -30z"/>
<path d="M2390 2205 c0 -15 23 -101 29 -108 7 -7 64 29 72 46 2 4 -20 21 -48
37 -29 17 -53 28 -53 25z"/>
<path d="M2577 2183 c-20 -14 -37 -29 -37 -32 0 -3 28 -21 61 -39 34 -18 59
-27 57 -20 -3 7 -13 37 -22 66 -10 28 -18 52 -19 52 -1 0 -19 -12 -40 -27z"/>
<path d="M1805 2110 l-49 -29 97 -3 c53 -2 97 -2 97 -1 0 3 -88 63 -92 62 -2
-1 -25 -14 -53 -29z"/>
<path d="M2476 2110 c-21 -16 -40 -31 -42 -32 -1 -2 41 -2 94 0 l96 3 -50 30
c-27 16 -51 29 -54 29 -3 -1 -22 -14 -44 -30z"/>
<path d="M1719 2048 c-23 -19 -54 -107 -42 -119 5 -5 56 -8 113 -7 l104 3 -44
29 -43 28 -58 -28 c-76 -36 -87 -26 -13 11 l56 29 -33 28 c-42 34 -28 37 17 3
l33 -26 58 30 58 30 -96 1 c-62 0 -101 -4 -110 -12z"/>
<path d="M2513 2029 l58 -30 33 26 c45 34 59 31 18 -4 l-33 -28 56 -28 c31
-15 54 -30 51 -33 -4 -3 -33 7 -65 22 l-58 28 -43 -28 -44 -29 95 -3 c52 -2
104 0 116 3 l22 5 -21 53 c-12 28 -28 58 -37 65 -10 8 -48 12 -110 12 l-96 -1
58 -30z"/>
<path d="M1883 2022 c-29 -14 -53 -29 -53 -32 0 -3 18 -18 40 -33 29 -21 41
-25 45 -15 15 41 35 101 35 104 0 8 -16 2 -67 -24z"/>
<path d="M2430 2046 c0 -3 20 -63 35 -104 4 -10 16 -6 45 15 22 15 40 30 40
33 0 6 -105 60 -115 60 -3 0 -5 -2 -5 -4z"/>
<path d="M1670 1906 c0 -2 18 -16 41 -31 l41 -27 60 27 c33 15 62 24 65 21 3
-3 -17 -16 -46 -30 -29 -13 -53 -26 -54 -29 -1 -3 16 -19 38 -36 l40 -29 23
61 c17 47 20 62 10 69 -13 7 -218 12 -218 4z"/>
<path d="M2493 1902 c-9 -6 -6 -23 11 -70 l22 -63 40 31 c21 18 40 33 42 35 1
1 -23 15 -53 30 -31 15 -54 30 -51 33 4 3 33 -7 65 -22 l58 -28 42 27 c22 15
41 29 41 31 0 8 -205 4 -217 -4z"/>
<path d="M1628 1835 l-25 -64 61 31 c34 17 63 32 66 35 3 2 -6 13 -20 24 -54
43 -55 43 -82 -26z"/>
<path d="M2687 1873 c-20 -16 -36 -30 -37 -33 0 -3 29 -20 64 -37 l63 -31 -25
61 c-13 34 -25 63 -27 65 -1 1 -18 -10 -38 -25z"/>
<path d="M1690 1800 l-55 -28 100 -4 c55 -1 101 -3 102 -2 3 1 -87 64 -90 64
-1 -1 -27 -14 -57 -30z"/>
<path d="M2583 1797 c-24 -17 -42 -31 -40 -31 1 -1 46 1 101 4 l98 5 -56 28
c-31 15 -57 27 -59 26 -1 0 -21 -15 -44 -32z"/>
<path d="M1568 1685 l-26 -62 69 30 c38 17 68 31 66 32 -1 1 -20 15 -42 32
l-40 31 -27 -63z"/>
<path d="M1640 1729 c48 -38 52 -38 115 -9 l60 28 -100 1 -100 1 25 -21z"/>
<path d="M2625 1721 c62 -29 68 -29 115 8 l25 21 -100 -1 -100 -1 60 -27z"/>
<path d="M2744 1716 l-41 -32 68 -31 c38 -17 69 -30 69 -29 0 2 -12 30 -27 63
l-28 61 -41 -32z"/>
<path d="M1768 1712 c-32 -15 -57 -29 -57 -32 -1 -3 17 -18 39 -33 l40 -28 25
57 c14 31 25 58 25 60 0 7 -15 2 -72 -24z"/>
<path d="M2540 1737 c0 -2 11 -30 25 -61 l25 -57 40 28 c22 15 40 30 40 33 0
3 -26 16 -57 30 -74 33 -73 32 -73 27z"/>
<path d="M1615 1640 l-60 -29 108 -1 c59 0 107 2 107 4 0 7 -76 56 -86 55 -5
0 -36 -14 -69 -29z"/>
<path d="M2654 1648 c-16 -12 -33 -25 -38 -30 -6 -4 39 -8 100 -8 l109 1 -64
29 c-35 17 -67 30 -71 30 -4 0 -20 -10 -36 -22z"/>
<path d="M1535 1592 c-9 -6 -55 -96 -55 -107 0 -3 7 -5 15 -5 18 0 105 42 105
50 0 3 -14 16 -31 29 -17 13 -28 25 -25 28 2 3 21 -7 41 -23 l36 -27 52 22
c83 36 98 35 28 -2 l-64 -34 31 -21 c48 -35 64 -29 88 32 18 47 19 56 7 60
-22 9 -216 7 -228 -2z"/>
<path d="M2614 1594 c-8 -3 -4 -22 10 -59 24 -62 40 -68 88 -33 l31 21 -64 33
c-77 40 -67 44 18 8 l62 -27 36 28 c20 15 39 25 41 22 3 -3 -8 -15 -25 -28
-17 -13 -31 -26 -31 -29 0 -8 87 -50 105 -50 8 0 15 2 15 4 0 12 -45 102 -54
108 -12 8 -214 10 -232 2z"/>
<path d="M1575 1499 l-40 -18 70 -1 70 0 -25 20 c-30 23 -25 23 -75 -1z"/>
<path d="M2730 1500 l-25 -20 70 0 70 0 -44 20 c-24 11 -44 20 -45 20 0 0 -12
-9 -26 -20z"/>
<path d="M1338 1445 c-2 -3 -3 -18 0 -35 4 -26 8 -30 37 -30 34 0 45 13 45 51
0 15 -7 19 -38 19 -21 0 -41 -2 -44 -5z"/>
<path d="M1476 1438 c5 -7 2 -9 -8 -5 -12 4 -17 -2 -20 -24 -4 -25 -1 -29 18
-29 20 0 23 5 22 35 -1 19 -5 35 -10 35 -5 0 -6 -5 -2 -12z"/>
<path d="M1514 1436 c-3 -9 -1 -23 5 -30 9 -11 9 -15 -1 -19 -7 -2 0 -4 15 -4
25 0 28 2 25 31 -3 34 -34 49 -44 22z"/>
<path d="M1582 1418 c2 -22 9 -34 21 -36 14 -3 17 4 17 32 0 30 -4 36 -21 36
-17 0 -20 -5 -17 -32z"/>
<path d="M1650 1435 c0 -9 6 -12 18 -9 16 5 16 5 0 -6 -24 -15 -23 -40 2 -40
16 0 20 7 20 35 0 28 -4 35 -20 35 -11 0 -20 -7 -20 -15z"/>
<path d="M1736 1441 c-3 -4 -10 -20 -15 -35 -10 -24 -8 -26 14 -26 22 0 25 4
25 35 0 33 -12 46 -24 26z"/>
<path d="M1780 1416 c0 -31 3 -36 24 -36 21 0 23 4 21 33 -2 24 -8 33 -24 35
-18 3 -21 -2 -21 -32z"/>
<path d="M1850 1415 c0 -28 4 -35 20 -35 16 0 20 7 20 35 0 28 -4 35 -20 35
-16 0 -20 -7 -20 -35z"/>
<path d="M1920 1415 c0 -28 4 -35 20 -35 16 0 20 7 20 35 0 28 -4 35 -20 35
-16 0 -20 -7 -20 -35z"/>
<path d="M1982 1415 c0 -30 3 -35 24 -35 21 0 24 5 24 35 0 30 -3 35 -24 35
-21 0 -24 -5 -24 -35z"/>
<path d="M2050 1415 c0 -28 4 -35 20 -35 16 0 20 7 20 35 0 28 -4 35 -20 35
-16 0 -20 -7 -20 -35z"/>
<path d="M2120 1415 c0 -28 4 -35 20 -35 16 0 20 7 20 35 0 28 -4 35 -20 35
-16 0 -20 -7 -20 -35z"/>
<path d="M2190 1415 c0 -28 4 -35 20 -35 16 0 20 7 20 35 0 28 -4 35 -20 35
-16 0 -20 -7 -20 -35z"/>
<path d="M2250 1415 c0 -31 3 -35 25 -35 22 0 25 4 25 35 0 31 -3 35 -25 35
-22 0 -25 -4 -25 -35z"/>
<path d="M2320 1415 c0 -28 4 -35 20 -35 16 0 20 7 20 35 0 28 -4 35 -20 35
-16 0 -20 -7 -20 -35z"/>
<path d="M2390 1415 c0 -28 4 -35 20 -35 16 0 20 7 20 35 0 28 -4 35 -20 35
-16 0 -20 -7 -20 -35z"/>
<path d="M2458 1415 c-4 -31 -1 -35 19 -35 20 0 23 5 23 35 0 28 -4 35 -19 35
-14 0 -20 -9 -23 -35z"/>
<path d="M2520 1416 c0 -31 3 -36 24 -36 21 0 23 4 21 33 -2 24 -8 33 -24 35
-18 3 -21 -2 -21 -32z"/>
<path d="M2590 1415 c0 -28 4 -35 20 -35 16 0 20 7 20 35 0 28 -4 35 -20 35
-16 0 -20 -7 -20 -35z"/>
<path d="M2677 1443 c-11 -10 -8 -28 8 -49 13 -18 14 -17 15 19 0 35 -8 46
-23 30z"/>
<path d="M2724 1439 c-7 -12 12 -29 34 -29 6 0 12 9 12 20 0 22 -34 28 -46 9z"/>
<path d="M2790 1421 c0 -26 14 -41 39 -41 4 0 5 16 3 35 -3 26 -9 35 -23 35
-14 0 -19 -7 -19 -29z"/>
<path d="M2860 1430 c0 -23 10 -26 28 -8 18 18 15 28 -8 28 -13 0 -20 -7 -20
-20z"/>
<path d="M2951 1428 c17 -34 19 -34 19 -5 0 18 -5 27 -15 27 -13 0 -14 -4 -4
-22z"/>
<path d="M2990 1415 c0 -31 3 -35 25 -35 22 0 25 4 25 35 0 31 -3 35 -25 35
-22 0 -25 -4 -25 -35z"/>
<path d="M2928 1405 c2 -14 10 -25 17 -25 10 0 11 5 2 25 -15 32 -26 32 -19 0z"/>
<path d="M2878 1406 c-23 -17 -23 -26 2 -26 13 0 20 7 20 20 0 23 0 23 -22 6z"/>
<path d="M2720 1396 c0 -10 9 -16 25 -16 14 0 25 5 25 10 0 6 -4 10 -9 10 -5
0 -16 3 -25 6 -11 4 -16 1 -16 -10z"/>
<path d="M1367 1263 c-3 -10 -18 -38 -32 -62 -27 -42 -27 -43 -5 -36 12 4 46
18 76 32 l55 25 -41 29 c-47 34 -46 34 -53 12z"/>
<path d="M1410 1276 c0 -2 16 -14 35 -26 l36 -22 55 22 c70 29 82 20 13 -9
l-51 -23 33 -28 c42 -36 28 -39 -18 -4 l-34 26 -72 -31 -72 -31 125 1 125 2
28 60 c15 33 27 61 27 62 0 1 -52 3 -115 4 -63 1 -115 0 -115 -3z"/>
<path d="M1645 1233 c-10 -27 -19 -50 -18 -53 1 -3 -4 -11 -9 -18 -9 -10 3
-12 63 -10 l74 3 3 61 3 60 -40 2 c-33 2 -40 0 -35 -13 7 -17 20 -20 29 -5 3
6 11 10 18 10 6 0 4 -7 -6 -17 -15 -16 -15 -19 4 -50 12 -19 19 -37 16 -40 -4
-3 -16 11 -28 31 l-22 37 -26 -25 c-40 -38 -50 -32 -13 7 27 28 30 36 20 50
-12 15 -15 12 -33 -30z"/>
<path d="M1774 1267 c-3 -8 -4 -36 -2 -63 l3 -49 60 0 60 0 0 60 0 60 -58 3
c-42 2 -59 -1 -63 -11z m81 -17 c14 13 27 21 30 18 3 -2 -4 -13 -15 -23 -11
-10 -20 -23 -20 -30 0 -7 9 -20 20 -30 11 -10 18 -21 15 -23 -3 -3 -16 5 -30
18 l-25 24 -16 -22 c-8 -12 -20 -22 -26 -22 -6 0 -1 11 11 24 l23 25 -23 33
-23 33 27 -24 27 -24 25 23z"/>
<path d="M1952 1253 l27 -27 26 24 c30 28 34 16 5 -15 l-20 -21 30 -29 30 -29
0 60 0 61 -62 2 -63 2 27 -28z"/>
<path d="M2064 1267 c-3 -8 -4 -36 -2 -63 l3 -49 60 0 60 0 0 60 0 60 -58 3
c-42 2 -59 -1 -63 -11z m46 -27 c0 -17 25 -11 38 10 7 11 17 20 24 20 6 0 2
-10 -10 -23 -27 -29 -27 -35 1 -65 22 -25 22 -25 0 -13 -12 6 -23 16 -26 23
-3 9 -12 6 -31 -11 -14 -14 -28 -22 -31 -19 -3 2 4 13 15 23 26 23 25 33 -2
63 l-23 25 23 -12 c12 -6 22 -16 22 -21z"/>
<path d="M2243 1253 l27 -28 27 28 28 27 -55 0 -55 0 28 -27z"/>
<path d="M2308 1246 l-27 -33 29 -28 30 -29 0 62 c0 34 -1 62 -2 61 -2 0 -15
-15 -30 -33z"/>
<path d="M2356 1273 c-3 -4 -6 -31 -6 -62 l0 -55 30 29 30 29 -27 28 c-32 33
-20 38 15 6 17 -16 26 -19 29 -10 3 7 14 17 25 23 l21 11 -21 -29 -20 -28 21
-30 21 -30 -27 24 -28 25 -27 -27 -27 -28 55 3 55 3 5 60 c6 65 18 57 22 -15
l3 -45 55 -3 55 -3 -27 28 -27 27 -26 -24 c-14 -13 -25 -19 -25 -13 0 5 9 18
20 28 l20 18 -20 22 c-29 31 -25 43 5 15 l26 -24 26 26 26 26 -126 0 c-69 0
-128 -2 -131 -5z"/>
<path d="M2598 1246 l-27 -33 29 -28 30 -29 0 62 c0 34 -1 62 -2 61 -2 0 -15
-15 -30 -33z"/>
<path d="M2647 1274 c-4 -4 -7 -30 -7 -58 l0 -51 21 33 c21 31 21 34 4 52 -20
22 -7 28 13 8 10 -10 15 -10 23 2 8 12 9 11 5 -5 -3 -13 5 -32 25 -55 27 -32
30 -33 24 -10 -15 53 -40 85 -71 88 -16 2 -33 0 -37 -4z"/>
<path d="M2740 1275 c0 -1 12 -29 28 -62 l27 -60 125 -2 125 -1 -70 30 -69 30
-39 -26 c-21 -14 -41 -23 -44 -21 -2 3 11 16 31 29 l36 25 -56 22 c-30 13 -53
26 -50 28 3 3 30 -4 60 -17 l55 -22 36 22 c19 12 35 24 35 26 0 3 -52 4 -115
3 -63 -1 -115 -3 -115 -4z"/>
<path d="M2956 1250 c-38 -29 -38 -30 -15 -39 13 -5 46 -19 72 -30 27 -12 51
-21 53 -21 3 0 -10 27 -28 60 -18 33 -35 60 -38 59 -3 0 -22 -13 -44 -29z"/>
<path d="M1914 1215 c0 -30 1 -55 1 -55 1 0 13 13 28 28 l27 28 -28 27 -28 27
0 -55z"/>
<path d="M2205 1217 c0 -29 5 -55 10 -59 6 -4 32 -8 60 -8 l50 0 -27 27 -27
27 -26 -24 c-30 -28 -34 -16 -5 15 l20 21 -28 27 -27 26 0 -52z"/>
<path d="M2672 1188 l-21 -33 24 -3 c14 -2 39 -2 56 0 l30 3 -34 33 -34 33
-21 -33z"/>
<path d="M1950 1175 l-23 -25 53 0 53 0 -23 25 c-13 14 -26 25 -30 25 -4 0
-17 -11 -30 -25z"/>
<path d="M1257 1067 c-25 -43 -32 -64 -24 -69 16 -10 260 -10 253 0 -2 4 -24
18 -48 31 l-45 24 -67 -27 c-37 -15 -73 -25 -79 -23 -6 2 21 16 61 32 40 16
69 31 65 35 -4 3 -24 18 -45 33 l-36 27 -35 -63z"/>
<path d="M1320 1126 c3 -3 22 -16 42 -30 l37 -25 62 25 c33 14 66 23 72 21 7
-2 -16 -14 -51 -28 -34 -13 -62 -26 -62 -29 1 -7 90 -63 95 -59 3 4 55 119 55
124 0 1 -57 3 -127 4 -70 1 -125 0 -123 -3z"/>
<path d="M1587 1113 c-2 -10 -30 -72 -61 -137 -47 -98 -53 -116 -34 -103 94
67 156 105 243 147 108 53 266 104 303 97 12 -2 22 0 22 4 0 5 -105 9 -234 9
-214 0 -234 -1 -239 -17z m203 -23 c0 -3 -10 -10 -23 -16 -12 -6 -61 -32 -109
-58 -49 -26 -88 -43 -88 -38 0 20 32 84 51 103 18 18 31 20 95 17 41 -2 74 -5
74 -8z"/>
<path d="M2103 1123 c-20 -4 -21 -9 -17 -61 3 -31 6 -58 9 -60 2 -2 10 10 19
26 14 28 14 31 -4 47 -11 10 -18 20 -15 23 3 3 13 -2 23 -11 17 -15 19 -15 36
13 17 30 17 30 -6 29 -13 -1 -33 -4 -45 -6z"/>
<path d="M2216 1108 c10 -13 20 -25 21 -27 2 -2 12 4 23 14 23 21 27 10 5 -15
-12 -14 -12 -19 6 -45 l20 -30 -2 63 -2 62 -45 0 -45 0 19 -22z"/>
<path d="M2332 1100 l22 -30 24 23 24 22 -29 6 c-62 14 -66 12 -41 -21z"/>
<path d="M2466 1115 c112 -24 278 -99 364 -165 19 -15 40 -30 47 -34 7 -3 -11
43 -40 103 l-52 110 -190 0 c-182 -1 -188 -1 -129 -14z m299 -41 c23 -24 33
-54 20 -54 -3 0 -34 15 -68 32 -61 32 -62 33 -32 39 50 11 55 10 80 -17z"/>
<path d="M2810 1124 c0 -3 51 -112 57 -123 3 -5 93 52 93 59 0 3 -28 16 -62
29 -35 14 -58 26 -51 28 6 2 39 -7 73 -21 l62 -25 39 26 c21 14 39 28 39 30 0
2 -56 3 -125 2 -69 -1 -125 -4 -125 -5z"/>
<path d="M3045 1098 c-21 -16 -41 -30 -42 -32 -2 -1 29 -16 69 -31 40 -16 67
-30 61 -32 -6 -2 -39 7 -74 22 -34 14 -67 25 -73 25 -6 0 -31 -14 -56 -30
l-45 -30 125 0 c69 0 131 4 138 8 10 7 4 22 -22 67 -20 31 -37 59 -38 60 -2 1
-21 -11 -43 -27z"/>
<path d="M1990 1101 l-24 -7 30 -21 31 -22 12 25 c6 14 11 27 11 29 0 7 -30 4
-60 -4z"/>
<path d="M2158 1082 c-17 -28 -17 -30 5 -50 l23 -22 -4 38 c-6 63 -7 64 -24
34z"/>
<path d="M2196 1074 c11 -83 12 -84 50 -84 l35 0 -18 30 -18 30 -18 -22 c-17
-20 -18 -21 -12 -3 16 44 15 52 -4 69 -20 18 -20 18 -15 -20z"/>
<path d="M2425 1098 c-12 -36 -26 -100 -22 -104 2 -2 14 7 26 20 19 20 21 28
12 44 -6 12 -11 27 -11 34 1 7 8 1 16 -15 12 -23 18 -26 34 -17 41 22 36 33
-18 45 -23 5 -33 3 -37 -7z"/>
<path d="M2050 1070 c-12 -29 -11 -33 9 -53 l22 -22 -7 50 c-3 28 -8 51 -9 53
-1 1 -8 -11 -15 -28z"/>
<path d="M2307 1086 c-4 -10 -7 -31 -7 -48 0 -30 0 -31 20 -13 23 21 25 34 7
59 -13 18 -14 18 -20 2z"/>
<path d="M2381 1076 c-21 -22 -22 -26 -8 -52 l15 -28 10 49 c6 28 9 51 8 52
-1 2 -13 -8 -25 -21z"/>
<path d="M1903 1077 c-39 -12 -41 -20 -9 -40 23 -16 24 -15 36 14 7 16 11 31
9 33 -2 1 -19 -2 -36 -7z"/>
<path d="M1974 1056 c4 -15 10 -42 13 -58 l6 -30 14 33 c13 31 12 34 -13 58
l-26 26 6 -29z"/>
<path d="M2535 1070 c-12 -20 -33 -100 -26 -100 22 0 41 38 35 68 -8 41 3 42
13 2 l8 -30 29 19 29 19 -38 16 c-44 19 -42 19 -50 6z"/>
<path d="M1942 1042 c-10 -28 -8 -33 10 -47 12 -8 23 -13 24 -12 2 2 -3 23
-10 47 l-13 44 -11 -32z"/>
<path d="M2492 1052 c-18 -14 -21 -24 -17 -52 l5 -35 -13 28 -13 27 -23 -23
-22 -24 32 -7 c18 -3 36 -3 40 1 6 8 40 103 36 103 -1 0 -12 -8 -25 -18z"/>
<path d="M1793 1034 c-18 -8 -33 -16 -33 -19 0 -2 13 -11 29 -19 28 -15 29
-15 35 16 3 17 5 32 4 33 -2 1 -18 -4 -35 -11z"/>
<path d="M1841 1030 c-1 -8 -4 -24 -7 -36 -4 -15 2 -25 21 -38 27 -18 27 -18
20 6 -14 44 -33 83 -34 68z"/>
<path d="M1878 991 l17 -50 11 32 c9 28 8 34 -12 49 -32 26 -34 23 -16 -31z"/>
<path d="M2121 1014 c-6 -15 -10 -27 -9 -28 2 -1 18 1 36 4 l34 5 -24 23 -25
22 -12 -26z"/>
<path d="M2327 1015 c-17 -24 -17 -25 2 -25 11 0 27 -3 36 -6 16 -6 16 -5 1
25 -9 17 -18 31 -19 31 -1 0 -10 -12 -20 -25z"/>
<path d="M2657 1008 c8 -42 5 -40 41 -25 l30 13 -39 22 -39 22 7 -32z"/>
<path d="M2591 1011 c-20 -15 -22 -22 -14 -46 l9 -29 18 43 c9 24 15 45 14 47
-2 1 -14 -5 -27 -15z"/>
<path d="M2021 998 c-10 -26 3 -33 36 -21 21 8 21 8 -3 26 -24 18 -24 18 -33
-5z"/>
<path d="M2622 993 c-5 -15 -13 -36 -17 -46 -7 -16 -5 -16 19 -6 26 12 34 41
17 67 -6 10 -11 7 -19 -15z"/>
<path d="M1686 984 c-29 -16 -26 -27 12 -39 16 -4 22 -2 22 9 0 8 3 21 6 30 8
20 -3 20 -40 0z"/>
<path d="M1760 997 c0 -9 41 -97 45 -97 3 0 5 15 5 34 0 25 -6 38 -25 50 -14
9 -25 15 -25 13z"/>
<path d="M1740 978 c0 -9 -2 -23 -6 -31 -4 -12 42 -54 51 -45 2 2 -8 23 -20
48 -13 25 -24 37 -25 28z"/>
<path d="M1917 964 c-4 -22 -2 -25 17 -20 11 3 28 6 36 6 11 1 8 6 -9 20 -31
26 -38 25 -44 -6z"/>
<path d="M2530 970 l-24 -18 27 -13 c33 -15 42 -8 31 25 -9 25 -9 25 -34 6z"/>
<path d="M1212 973 c-10 -4 -45 -53 -85 -119 -3 -6 32 3 78 20 47 17 85 34 85
38 0 3 -16 16 -36 28 -19 12 -33 25 -30 28 3 3 24 -8 47 -23 l42 -28 66 23
c36 13 73 27 81 31 16 9 -226 11 -248 2z"/>
<path d="M2083 966 c-231 -44 -446 -164 -661 -371 -60 -57 -113 -101 -118 -97
-4 4 -3 0 4 -9 6 -8 47 -41 90 -72 327 -236 746 -313 1138 -211 171 44 362
140 495 247 53 43 65 62 39 62 -4 0 -49 44 -100 98 -158 166 -322 276 -500
332 -105 33 -275 42 -387 21z m299 -29 c25 -7 56 -21 67 -31 12 -11 21 -14 21
-8 0 7 7 12 15 12 8 0 15 -4 15 -8 0 -4 9 -8 21 -9 27 -2 177 -84 236 -129
119 -91 263 -236 263 -264 0 -18 -146 -113 -255 -165 -193 -94 -350 -129 -575
-129 -168 0 -265 14 -405 60 -170 55 -405 188 -405 229 0 13 24 43 66 81 36
32 78 70 94 84 61 56 209 155 280 188 25 11 61 27 80 36 19 8 78 26 130 40
108 28 272 34 352 13z"/>
<path d="M2406 803 c-11 -11 -6 -23 9 -23 8 0 15 4 15 9 0 13 -16 22 -24 14z"/>
<path d="M2693 968 c-17 -8 -23 -20 -23 -45 0 -18 2 -33 5 -33 2 0 14 18 25
41 12 23 24 38 27 35 3 -3 -4 -21 -16 -41 -11 -20 -21 -38 -21 -40 0 -2 14 2
30 8 27 10 30 15 24 42 -11 50 -13 51 -51 33z"/>
<path d="M2758 946 c4 -33 5 -34 33 -24 36 12 37 21 2 39 -16 7 -30 15 -34 16
-3 2 -3 -12 -1 -31z"/>
<path d="M2920 971 c8 -4 45 -18 81 -31 l66 -23 42 28 c23 15 44 25 47 22 4
-3 -10 -16 -30 -28 -21 -12 -34 -25 -29 -29 17 -15 163 -68 156 -57 -43 72
-75 116 -88 121 -25 9 -262 7 -245 -3z"/>
<path d="M1417 941 c-38 -16 -67 -32 -65 -37 4 -15 82 -64 89 -56 12 14 58
122 51 121 -4 -1 -38 -13 -75 -28z"/>
<path d="M2910 909 c17 -35 35 -63 41 -61 5 1 28 14 50 29 22 14 42 23 45 20
3 -3 -15 -17 -40 -32 -25 -15 -46 -28 -46 -28 0 -1 63 -2 139 -2 77 0 139 1
138 1 -1 1 -74 29 -162 62 -88 33 -168 63 -178 67 -14 6 -12 -4 13 -56z"/>
<path d="M1826 953 c-9 -9 -7 -53 2 -53 4 1 18 7 30 14 l24 13 -25 16 c-14 9
-27 13 -31 10z"/>
<path d="M1592 925 l-33 -23 32 -11 c39 -13 41 -11 37 27 l-3 30 -33 -23z"/>
<path d="M1640 909 c0 -29 5 -38 25 -47 31 -14 31 -8 0 43 l-25 40 0 -36z"/>
<path d="M1682 901 l23 -40 9 25 c9 28 3 38 -32 49 l-24 7 24 -41z"/>
<path d="M2621 926 l-25 -14 32 -16 32 -17 0 31 c0 33 -4 35 -39 16z"/>
<path d="M2788 908 c-24 -8 -28 -15 -28 -46 0 -34 1 -35 13 -17 29 43 49 75
46 74 -2 0 -16 -5 -31 -11z"/>
<path d="M2850 884 c0 -29 3 -35 16 -30 9 3 22 6 30 6 19 0 7 26 -22 45 -24
15 -24 15 -24 -21z"/>
<path d="M1728 880 c-5 -35 -6 -35 34 -14 l32 16 -25 14 c-34 19 -36 18 -41
-16z"/>
<path d="M2806 871 l-28 -44 28 7 c37 10 36 8 32 47 l-3 33 -29 -43z"/>
<path d="M1225 869 c-44 -17 -81 -31 -82 -32 0 -1 61 -2 138 -2 76 0 139 0
139 1 0 4 -103 64 -108 63 -4 0 -43 -14 -87 -30z"/>
<path d="M1501 863 c-31 -24 -32 -27 -15 -34 39 -15 49 -10 50 26 0 19 0 35 0
35 -1 0 -16 -12 -35 -27z"/>
<path d="M1587 849 c14 -21 27 -39 29 -39 2 0 4 13 4 28 0 21 -7 30 -29 39
l-30 11 26 -39z"/>
<path d="M2712 876 l-24 -13 26 -16 c34 -23 36 -22 36 13 0 33 -4 35 -38 16z"/>
<path d="M1550 841 c0 -23 6 -31 30 -39 l29 -11 -26 40 c-14 21 -27 39 -29 39
-2 0 -4 -13 -4 -29z"/>
<path d="M1640 829 c0 -33 6 -35 38 -11 l22 17 -30 12 c-29 11 -30 10 -30 -18z"/>
<path d="M2868 843 c-12 -3 -18 -14 -18 -36 l0 -31 30 34 c37 44 39 31 3 -18
-22 -28 -24 -34 -10 -29 10 4 24 7 32 7 16 0 26 51 13 68 -11 12 -19 13 -50 5z"/>
<path d="M2800 819 l-25 -10 24 -20 c27 -22 26 -23 35 14 7 29 4 31 -34 16z"/>
<path d="M1084 785 c-17 -32 -17 -35 -1 -53 18 -19 19 -19 73 1 30 11 53 21
52 22 -2 1 -26 15 -54 32 l-52 31 -18 -33z"/>
<path d="M1178 790 l52 -30 83 29 82 30 -135 0 -135 1 53 -30z"/>
<path d="M1467 813 c-14 -13 -7 -73 7 -73 8 0 23 -3 33 -7 14 -5 12 1 -9 29
-39 52 -34 61 7 13 l35 -40 0 32 c0 26 -5 33 -31 42 -38 13 -34 13 -42 4z"/>
<path d="M3067 789 l83 -29 52 30 53 30 -135 -1 -135 0 82 -30z"/>
<path d="M3223 784 l-53 -31 57 -21 c53 -20 57 -20 69 -4 18 23 17 32 -4 62
l-17 26 -52 -32z"/>
<path d="M1333 781 c-39 -14 -73 -28 -76 -31 -3 -3 20 -19 49 -37 l54 -32 30
59 c17 33 30 62 30 65 0 7 -7 5 -87 -24z"/>
<path d="M1432 785 c-15 -33 -15 -35 3 -35 10 0 15 10 15 30 0 37 -3 37 -18 5z"/>
<path d="M2960 806 c0 -4 13 -33 30 -66 l30 -59 54 32 c30 18 51 35 48 38 -4
3 -36 16 -72 29 -36 12 -71 25 -77 27 -7 3 -13 2 -13 -1z"/>
<path d="M1550 764 l0 -35 30 23 c17 12 30 23 30 24 0 1 -13 7 -30 13 -30 10
-30 9 -30 -25z"/>
<path d="M2928 735 l-4 -35 22 21 c23 22 22 49 -1 49 -7 0 -15 -15 -17 -35z"/>
<path d="M2882 751 l-24 -6 25 -23 24 -23 7 23 c11 41 11 42 -32 29z"/>
<path d="M1168 722 c-77 -27 -63 -37 57 -40 l110 -2 -50 30 c-57 34 -55 34
-117 12z"/>
<path d="M1410 727 c0 -8 12 -24 26 -38 l27 -24 -6 25 c-4 14 -7 31 -7 38 0 6
-9 12 -20 12 -11 0 -20 -6 -20 -13z"/>
<path d="M3095 710 l-50 -30 109 2 c65 2 111 7 113 13 3 9 -35 23 -107 41 -8
2 -37 -10 -65 -26z"/>
<path d="M1470 699 c0 -33 10 -37 33 -11 22 25 21 29 -8 34 -22 5 -25 2 -25
-23z"/>
<path d="M2952 710 c-12 -20 -6 -25 22 -14 8 3 12 12 9 20 -7 19 -16 18 -31
-6z"/>
<path d="M1386 694 c-8 -20 -8 -19 27 -28 l29 -7 -19 25 c-21 30 -29 32 -37
10z"/>
<path d="M2957 681 l-28 -6 30 -29 c29 -28 31 -28 31 -9 0 12 3 28 6 37 7 17
5 17 -39 7z"/>
<path d="M1140 659 c0 -3 9 -14 19 -23 18 -16 22 -16 83 2 l63 20 -83 3 c-45
2 -82 1 -82 -2z"/>
<path d="M3155 662 l-80 -4 64 -20 64 -20 20 21 c12 11 19 22 16 23 -2 2 -40
2 -84 0z"/>
<path d="M1265 632 c-38 -14 -72 -27 -74 -29 -7 -5 32 -45 63 -64 l30 -18 32
67 c19 37 34 68 34 70 0 4 -15 0 -85 -26z"/>
<path d="M1373 653 c-15 -6 -17 -39 -4 -48 5 -3 12 7 14 22 l4 28 2 -27 c1
-35 11 -35 41 -3 23 25 23 25 3 25 -12 0 -27 2 -35 4 -7 3 -19 2 -25 -1z"/>
<path d="M3002 636 c2 -24 28 -39 28 -16 0 6 -5 10 -11 10 -5 0 -8 4 -4 9 3 5
1 12 -5 16 -6 4 -9 -4 -8 -19z"/>
<path d="M3062 592 c32 -68 34 -69 58 -57 27 14 76 63 69 69 -2 2 -31 12 -64
23 -33 12 -68 24 -78 28 -14 6 -11 -6 15 -63z"/>
<path d="M3030 569 c12 -16 24 -28 26 -26 9 9 -20 57 -33 57 -11 0 -9 -8 7
-31z"/>
<path d="M1326 564 c-3 -9 -6 -23 -6 -32 0 -12 5 -11 25 8 25 23 25 40 0 40
-7 0 -16 -7 -19 -16z"/>
</g>
</svg>
