<?xml version="1.0" standalone="no"?>
<!DOCTYPE svg PUBLIC "-//W3C//DTD SVG 20010904//EN"
 "http://www.w3.org/TR/2001/REC-SVG-20010904/DTD/svg10.dtd">
<svg version="1.0" xmlns="http://www.w3.org/2000/svg"
 width="450.000000pt" height="450.000000pt" viewBox="0 0 450.000000 450.000000"
 preserveAspectRatio="xMidYMid meet">
<metadata>
Created by potrace 1.10, written by Peter Selinger 2001-2011
</metadata>
<g transform="translate(0.000000,450.000000) scale(0.050000,-0.050000)"
fill="#000000" stroke="none">
<path d="M1008 8137 c-117 -190 137 -572 547 -822 172 -106 210 -149 65 -75
-46 24 -79 34 -72 23 17 -28 290 -230 362 -269 69 -37 51 -42 -50 -15 l-70 20
52 -45 c29 -24 83 -79 120 -123 l68 -78 -60 36 c-51 31 -48 24 21 -41 45 -43
96 -87 114 -98 30 -18 28 -29 -21 -110 -53 -88 -54 -89 -60 -35 -8 67 -16 68
-67 10 -70 -81 -97 -169 -97 -321 l0 -148 -79 -36 c-43 -19 -98 -55 -121 -80
l-42 -44 60 -25 c77 -32 130 -91 111 -123 -34 -55 -45 -196 -26 -337 l20 -149
-142 -131 c-169 -156 -179 -186 -34 -102 144 82 151 78 53 -34 -163 -185 -198
-297 -79 -255 136 48 151 38 72 -49 -63 -71 -153 -218 -153 -252 0 -7 32 15
70 49 73 64 200 138 187 109 -4 -10 -37 -73 -72 -142 -120 -230 -150 -479 -75
-625 19 -37 21 -79 8 -160 -21 -133 -8 -265 44 -445 47 -163 49 -164 90 -22
l33 114 35 -47 c25 -33 38 -98 45 -228 11 -185 91 -437 109 -342 27 144 26
144 75 26 60 -150 297 -468 245 -331 -7 19 -18 82 -24 140 -12 105 -12 105 24
55 20 -27 59 -76 87 -110 29 -33 72 -109 97 -170 73 -173 217 -446 293 -552
l69 -98 2 120 c2 66 9 147 17 180 l15 60 50 -110 c80 -173 116 -294 118 -396
l1 -94 48 100 48 100 24 -70 c71 -205 280 -540 337 -540 9 0 11 53 6 118 -12
126 8 342 31 342 8 0 31 -31 51 -69 45 -84 166 -203 144 -141 -58 159 -43 162
95 24 l134 -135 19 52 c11 28 20 60 20 70 0 48 36 8 96 -109 36 -70 103 -167
147 -215 90 -96 78 -100 133 46 15 41 19 39 60 -30 23 -40 52 -73 64 -73 12 0
41 33 64 73 41 69 45 71 60 30 55 -146 43 -142 133 -46 44 48 111 145 147 215
60 117 96 157 96 109 0 -10 9 -42 20 -70 l19 -52 134 135 c138 138 153 135 95
-24 -22 -62 99 57 144 141 20 38 43 69 51 69 23 0 43 -216 31 -342 -5 -65 -3
-118 6 -118 57 0 266 335 337 540 l24 70 48 -100 48 -100 1 94 c2 91 74 324
138 446 l32 60 14 -60 c7 -33 14 -114 16 -180 l2 -120 69 98 c76 106 220 379
293 552 25 61 68 137 97 170 28 34 67 83 87 110 36 50 36 50 24 -55 -6 -58
-17 -119 -23 -135 -55 -143 179 164 241 317 40 99 43 102 78 67 66 -66 114 65
114 312 1 90 11 137 38 173 l38 48 27 -98 c16 -55 37 -99 48 -99 55 0 118 383
91 550 -13 81 -11 123 8 160 75 146 45 395 -75 625 -35 69 -68 132 -72 142
-13 29 114 -45 187 -109 38 -34 70 -56 70 -49 0 34 -90 181 -153 252 -79 87
-64 97 72 49 119 -42 84 70 -79 255 -98 112 -91 116 53 34 145 -84 135 -54
-34 102 l-142 131 20 149 c19 137 12 227 -27 350 -11 35 3 50 78 90 l90 48
-40 43 c-22 24 -76 59 -119 78 l-79 36 0 148 c0 152 -27 240 -97 321 -51 58
-59 57 -67 -10 -6 -54 -7 -53 -60 35 -49 81 -51 92 -21 110 18 11 69 55 114
98 69 65 72 72 21 41 l-60 -36 68 78 c37 44 91 99 120 123 l52 45 -70 -20
c-116 -32 -111 -23 42 79 82 53 180 126 218 160 l70 64 -87 -43 c-147 -71
-114 -28 57 73 354 211 557 460 563 691 3 155 -13 170 -89 83 -76 -87 -333
-213 -624 -307 -110 -35 -265 -98 -345 -140 -160 -85 -164 -85 -102 16 l43 70
-87 -48 c-47 -26 -153 -113 -234 -193 l-149 -146 -81 93 c-45 51 -144 142
-220 203 -175 139 -215 204 -215 346 l-1 110 -80 -85 c-44 -46 -85 -112 -92
-146 -8 -39 -22 -58 -38 -51 -15 5 -65 20 -113 33 -47 13 -113 37 -146 54 -56
29 -58 29 -33 -2 26 -30 17 -33 -100 -33 -77 0 -116 7 -100 17 35 23 -66 43
-212 43 -95 0 -107 4 -85 30 33 40 -145 42 -296 3 -87 -23 -121 -23 -208 0
-151 39 -329 37 -296 -3 22 -26 10 -30 -85 -30 -146 0 -247 -20 -212 -43 16
-10 -23 -17 -100 -17 -117 0 -126 3 -100 33 25 31 23 31 -33 2 -33 -17 -99
-41 -146 -54 -48 -13 -98 -28 -113 -33 -16 -7 -30 12 -38 51 -7 34 -48 100
-92 146 l-80 85 -1 -110 c0 -142 -40 -207 -215 -346 -76 -61 -175 -152 -220
-203 l-81 -93 -149 146 c-81 80 -187 167 -234 193 l-87 48 43 -70 c62 -101 58
-101 -102 -16 -80 42 -235 105 -345 140 -291 94 -548 220 -624 307 -39 45 -69
65 -78 51z m527 -379 c148 -55 286 -121 328 -156 40 -34 108 -81 150 -105 l77
-44 -80 86 -80 87 109 -58 c59 -32 158 -103 218 -158 95 -86 108 -93 96 -50
-42 155 -42 152 -8 124 68 -56 201 -248 243 -351 24 -60 59 -130 78 -156 l33
-47 -19 56 c-34 98 -22 106 42 28 34 -41 99 -94 145 -117 l83 -41 -69 59
c-228 195 298 3 564 -205 148 -116 149 -151 2 -57 -103 65 -323 167 -362 167
-8 0 13 -17 48 -38 34 -22 68 -47 74 -57 15 -25 -219 48 -337 106 l-100 48 81
-74 c44 -41 107 -94 140 -118 87 -62 41 -83 -62 -29 -84 45 -196 151 -275 262
-28 40 -31 41 -15 6 37 -77 23 -74 -37 8 -61 84 -203 211 -219 196 -5 -6 7
-28 27 -50 20 -22 32 -45 26 -51 -6 -6 -43 33 -82 86 -82 111 -262 287 -335
325 -31 17 -5 -21 69 -101 65 -70 146 -165 180 -210 89 -119 321 -386 328
-379 4 3 -12 43 -35 87 -68 134 -47 120 57 -38 55 -82 154 -202 221 -267 80
-77 143 -163 183 -247 34 -70 65 -125 69 -121 27 27 -29 176 -102 273 -155
205 51 105 273 -132 85 -91 118 -117 108 -83 -21 66 -87 196 -134 263 -21 30
-30 55 -19 55 30 0 150 -176 218 -320 67 -143 136 -244 116 -170 -6 22 -19 87
-30 146 -11 58 -30 124 -42 146 -12 23 -18 46 -13 51 22 22 138 -207 157 -310
25 -133 55 -196 126 -263 l53 -49 -53 94 c-63 114 -30 128 40 17 55 -88 109
-134 81 -70 -21 48 -38 168 -24 168 6 0 26 -47 45 -105 18 -58 59 -152 91
-210 77 -139 72 -173 -11 -78 -58 64 -67 69 -58 30 10 -47 10 -47 -27 -7 -71
78 -120 108 -80 51 19 -28 34 -64 34 -80 -1 -17 -21 1 -45 39 -72 113 -70 10
3 -132 65 -128 66 -142 4 -109 -23 12 -100 40 -171 62 -156 48 -194 87 -47 48
142 -37 148 -19 7 21 -62 19 -137 56 -167 83 -54 49 -54 49 -4 25 44 -22 42
-15 -20 54 -39 43 -101 121 -139 173 -59 82 -107 133 -71 75 7 -11 8 -20 3
-20 -5 0 -56 74 -113 165 -115 182 -239 342 -254 328 -5 -5 15 -46 45 -92 69
-104 53 -128 -18 -26 -55 79 -193 200 -193 168 0 -10 14 -29 30 -43 76 -63 17
-56 -112 14 -131 70 -355 275 -330 301 6 6 54 -26 106 -70 150 -124 213 -144
96 -31 -152 149 -333 349 -324 359 4 4 64 -42 132 -103 208 -185 192 -122 -24
95 -180 181 -233 221 -454 341 -137 75 -272 154 -300 175 l-50 40 50 -19 c28
-10 93 -37 145 -59 144 -63 114 -36 -72 66 -200 109 -326 216 -411 347 -82
129 -79 133 38 60 55 -34 215 -105 355 -158z m6325 102 c-87 -135 -214 -244
-414 -353 -186 -101 -213 -126 -71 -64 52 22 118 49 145 59 l50 19 -50 -40
c-27 -21 -162 -100 -300 -175 -221 -120 -274 -160 -454 -341 -216 -217 -232
-280 -24 -95 68 61 128 107 132 103 9 -10 -172 -210 -324 -359 -117 -113 -54
-93 96 31 52 44 100 76 106 70 25 -26 -199 -231 -330 -301 -129 -70 -188 -77
-112 -14 17 14 30 33 30 43 0 32 -138 -89 -193 -168 -71 -102 -87 -78 -18 26
30 46 50 87 45 92 -15 14 -139 -146 -254 -328 -57 -91 -108 -165 -113 -165 -5
0 -4 9 3 20 35 57 -11 7 -80 -85 -42 -58 -105 -135 -139 -171 -49 -53 -53 -64
-21 -54 36 12 36 9 -6 -27 -25 -22 -96 -55 -157 -73 -141 -41 -131 -58 12 -20
147 38 100 0 -70 -57 -77 -26 -156 -54 -176 -63 -30 -13 -26 5 25 107 75 148
88 255 18 145 -24 -38 -47 -58 -52 -45 -4 14 8 49 27 79 30 48 26 46 -41 -16
-68 -63 -74 -66 -64 -23 9 38 0 33 -57 -30 -83 -95 -88 -61 -11 78 32 58 73
152 91 210 19 58 39 105 45 105 14 0 -3 -120 -24 -168 -28 -64 26 -18 81 70
70 111 103 97 40 -17 l-53 -94 53 49 c71 67 101 130 126 263 19 103 135 332
157 310 5 -5 -1 -28 -13 -51 -12 -22 -31 -88 -42 -146 -11 -59 -24 -124 -30
-146 -20 -74 49 27 116 170 68 144 188 320 218 320 11 0 2 -25 -19 -55 -47
-67 -113 -197 -134 -263 -10 -34 23 -8 108 83 222 237 428 337 273 132 -75
-100 -129 -246 -101 -274 6 -5 36 49 68 119 40 89 97 166 182 249 68 65 167
186 222 268 104 158 125 172 57 38 -23 -44 -39 -84 -35 -87 7 -7 239 260 328
379 34 45 115 140 180 210 74 80 100 118 69 101 -73 -38 -253 -214 -335 -325
-39 -53 -76 -92 -82 -86 -6 6 6 29 26 51 20 22 32 44 27 50 -16 15 -158 -112
-219 -196 -60 -82 -74 -85 -37 -8 16 35 13 34 -15 -6 -79 -111 -191 -217 -275
-262 -104 -55 -148 -34 -61 28 33 24 96 77 140 118 l80 75 -100 -48 c-118 -58
-352 -131 -337 -106 6 10 40 35 74 57 35 21 56 38 48 38 -39 0 -259 -102 -362
-167 -147 -94 -146 -59 2 57 266 208 792 400 564 205 l-69 -59 83 41 c46 23
111 76 145 117 64 78 76 70 42 -28 l-19 -56 33 47 c19 26 54 96 78 156 66 162
294 448 261 327 -43 -159 -47 -156 70 -50 60 55 159 126 218 158 l109 58 -80
-86 c-96 -102 -43 -82 130 50 73 55 188 112 344 168 128 47 281 115 340 150
132 81 136 77 56 -48z m-3453 12 c80 -24 106 -24 186 0 141 42 163 37 105 -24
-47 -52 -47 -53 -4 -39 117 35 255 47 215 18 -21 -16 -59 -34 -84 -40 -91 -23
-41 -40 70 -23 151 22 319 2 492 -56 151 -52 195 -51 93 2 -35 18 -58 38 -52
45 7 6 68 -17 137 -52 l125 -63 -75 70 c-41 38 -70 70 -64 70 25 0 142 -68
184 -106 l45 -41 1 89 c3 158 25 179 78 71 33 -69 89 -128 213 -225 92 -72
168 -134 168 -137 0 -2 -51 12 -112 33 -140 47 -160 35 -40 -23 115 -56 212
-165 212 -238 0 -81 -14 -85 -82 -21 -59 55 -246 138 -314 138 -19 0 -47 9
-64 20 -50 32 13 25 170 -20 219 -63 219 -45 0 40 -459 179 -831 179 -1074 0
-60 -44 -76 -49 -76 -22 0 35 217 162 323 190 101 26 103 37 7 59 -32 7 -31 9
10 11 28 1 64 12 80 24 46 33 -191 3 -261 -32 -114 -59 -98 -13 17 51 l74 41
-68 -11 c-37 -6 -122 -39 -190 -73 -97 -49 -114 -53 -82 -20 22 22 76 59 120
81 54 26 67 40 40 40 -41 0 -163 -53 -250 -111 -27 -18 -15 0 28 40 91 84 67
90 -93 24 l-115 -47 -121 49 c-67 26 -136 45 -155 40 -27 -6 -24 -12 16 -29
28 -11 68 -40 90 -65 32 -36 21 -33 -60 17 -55 34 -131 67 -170 74 l-70 11 80
-42 c44 -23 98 -60 120 -82 32 -33 15 -29 -82 20 -68 34 -153 67 -190 73 l-68
11 74 -41 c115 -64 131 -110 17 -51 -70 35 -307 65 -261 32 17 -12 53 -23 80
-24 41 -2 42 -4 10 -11 -96 -22 -94 -33 7 -59 106 -28 323 -155 323 -190 0
-27 -16 -22 -76 22 -243 179 -615 179 -1074 0 -219 -85 -219 -103 0 -40 157
45 220 52 170 20 -16 -11 -45 -20 -64 -20 -68 0 -255 -83 -314 -138 -68 -64
-82 -60 -82 21 0 73 97 182 212 238 120 58 100 70 -40 23 -61 -21 -112 -35
-112 -33 0 3 76 65 168 137 124 97 180 156 213 225 52 107 75 87 78 -70 l1
-87 62 52 c74 63 119 69 66 9 -31 -34 -17 -30 74 20 74 42 138 63 190 62 l78
-1 -125 -58 c-209 -96 -184 -97 180 -2 202 53 252 59 355 45 116 -16 167 1 75
24 -25 6 -63 24 -84 40 -40 29 98 17 215 -18 43 -14 43 -13 -4 39 -58 61 -36
66 105 24z m367 -530 c34 -44 32 -112 -4 -142 -16 -14 -30 -32 -30 -42 0 -84
-162 -124 -404 -99 -26 2 -136 178 -135 215 2 136 478 193 573 68z m-1115
-177 c359 -210 564 -510 454 -665 -18 -27 -17 -27 9 0 116 115 37 328 -213
574 -168 165 -170 176 -19 75 134 -89 262 -227 310 -335 32 -71 40 -78 52 -44
20 56 90 154 102 143 5 -5 -4 -31 -20 -56 -61 -97 -64 -155 -4 -82 118 145
214 148 329 12 69 -82 74 -36 7 70 -16 25 -25 51 -20 56 12 11 82 -87 102
-143 12 -34 20 -27 52 44 48 108 176 246 310 335 151 101 149 90 -19 -75 -250
-246 -329 -459 -213 -574 26 -27 27 -27 9 0 -110 156 92 450 456 665 143 85
223 102 105 23 -101 -68 -162 -124 -214 -198 l-43 -60 67 56 c85 70 362 213
362 186 0 -4 -45 -42 -101 -85 -162 -123 -187 -186 -32 -80 132 91 258 140
408 161 117 17 107 -15 -15 -46 -106 -27 -304 -146 -370 -222 -22 -25 -75 -72
-118 -103 -152 -111 -21 -55 172 74 212 142 351 209 430 209 36 0 3 -24 -112
-81 -426 -214 -914 -723 -1032 -1078 -45 -137 -73 -128 -37 11 68 262 184 454
394 655 79 75 116 118 83 94 -33 -23 -92 -64 -132 -90 -74 -49 -278 -266 -278
-296 0 -10 -9 -12 -20 -5 -11 7 -20 35 -20 62 0 60 -59 177 -129 256 -61 70
-63 63 -11 -51 58 -128 48 -157 -19 -55 -32 48 -86 114 -120 147 l-61 58 -61
-58 c-34 -33 -88 -99 -120 -147 -67 -102 -77 -73 -19 55 54 117 51 120 -27 27
-67 -81 -99 -147 -122 -250 l-12 -56 -76 96 c-79 99 -154 168 -311 283 -50 37
-87 75 -81 85 6 10 3 18 -7 18 -11 0 -85 60 -167 133 -147 133 -290 216 -412
239 -96 18 -79 50 20 36 150 -21 276 -70 408 -161 155 -106 130 -43 -32 80
-56 43 -101 81 -101 85 0 27 277 -116 362 -186 l67 -56 -43 60 c-52 74 -113
130 -214 198 -118 79 -38 62 107 -23z m434 -36 c77 -63 145 -149 119 -149 -5
0 -53 37 -106 83 -158 136 -170 194 -13 66z m913 44 c-17 -29 -202 -193 -218
-193 -26 0 41 84 117 148 88 74 129 92 101 45z m-1858 -132 c50 -21 174 -95
276 -163 161 -107 234 -166 443 -354 116 -105 294 -442 324 -614 17 -98 -15
-75 -50 35 -104 324 -613 848 -1022 1053 -173 87 -151 120 29 43z m-890 -687
c17 -17 20 -7 10 42 -18 87 -6 81 70 -37 44 -66 101 -120 169 -159 85 -49 94
-60 53 -59 -27 0 -97 26 -155 58 -124 68 -127 65 -35 -36 l70 -78 -38 -87
c-20 -49 -42 -119 -49 -158 l-12 -70 49 90 c56 105 62 99 19 -22 -33 -95 -47
-333 -25 -428 11 -46 5 -39 -26 26 -22 47 -48 155 -58 240 l-18 154 8 -164 c8
-155 129 -494 163 -459 6 5 2 26 -8 46 -26 51 -30 271 -6 307 15 22 21 0 21
-80 0 -135 31 -251 87 -329 23 -33 44 -71 46 -85 2 -14 27 -54 55 -88 34 -40
52 -85 52 -130 0 -54 11 -74 50 -92 109 -50 82 47 -61 214 -49 57 -84 108 -79
114 6 5 -3 42 -20 82 -42 102 -37 116 12 34 90 -150 236 -269 378 -309 43 -12
41 -8 -15 30 -82 54 -84 70 -4 28 34 -17 107 -37 162 -43 137 -16 79 -49 -93
-53 -84 -2 -116 -9 -95 -21 71 -40 401 -1 525 63 l118 61 -48 -73 c-96 -149
-115 -408 -39 -539 17 -30 26 -37 20 -17 -6 20 -16 74 -22 120 l-11 83 40 -96
c21 -53 49 -108 60 -122 12 -14 16 -31 10 -37 -6 -6 37 -43 97 -81 60 -38 128
-94 152 -124 65 -83 53 -10 -13 82 -82 113 -170 268 -159 279 5 6 33 -26 61
-69 140 -211 241 -283 163 -117 -72 156 -59 177 28 43 70 -109 143 -190 143
-160 0 7 -22 46 -48 87 -55 86 -98 210 -88 256 3 17 59 -64 124 -181 130 -234
154 -253 95 -77 l-40 117 59 -70 c33 -38 75 -104 94 -144 44 -97 67 -97 40 -1
-27 98 -90 221 -150 293 -27 32 -77 113 -111 180 l-63 122 -14 -70 c-10 -58
-13 -48 -15 53 -2 68 -9 140 -16 160 -13 35 37 -6 195 -160 90 -88 69 -29 -29
80 -48 53 -93 120 -101 147 -12 46 -11 47 13 12 14 -21 63 -81 109 -134 74
-86 99 -144 216 -503 73 -224 141 -420 151 -436 29 -45 42 -14 189 436 117
359 142 417 216 503 46 53 95 113 109 134 24 35 25 34 13 -12 -8 -27 -53 -94
-101 -147 -48 -54 -87 -112 -87 -130 0 -20 16 -7 40 32 22 36 48 65 59 65 10
0 52 34 93 75 42 42 69 59 61 38 -7 -20 -14 -92 -16 -160 -2 -101 -5 -111 -15
-53 l-14 70 -63 -122 c-34 -67 -84 -148 -111 -180 -61 -73 -123 -195 -151
-297 -30 -108 -16 -110 34 -7 23 47 69 118 101 156 l60 70 -40 -107 c-68 -184
-31 -158 93 65 65 118 122 200 125 183 10 -46 -33 -170 -90 -258 -27 -42 -45
-81 -40 -86 15 -14 130 134 174 223 59 119 50 23 -9 -105 -78 -166 23 -94 163
117 28 43 56 75 61 69 11 -11 -77 -166 -159 -279 -81 -112 -69 -147 20 -58 42
42 107 94 145 116 38 23 70 50 71 60 1 11 20 61 42 110 23 50 47 104 54 120
14 35 -3 -119 -19 -173 -6 -20 3 -13 20 17 76 131 57 390 -39 539 l-48 73 124
-62 c130 -65 447 -102 520 -61 20 11 -13 18 -96 20 -172 4 -230 37 -93 53 55
6 128 26 162 43 80 42 78 26 -4 -28 -56 -38 -58 -42 -15 -30 142 40 288 159
378 309 51 85 52 77 7 -51 -20 -54 -78 -157 -130 -228 -117 -159 -121 -194
-18 -168 34 9 43 27 43 82 0 48 22 99 72 167 39 54 66 98 58 98 -7 0 5 25 26
55 58 84 84 179 85 313 0 97 5 114 22 85 13 -22 18 -95 12 -175 -11 -170 -8
-170 69 -6 55 119 114 528 70 488 -6 -6 -13 -65 -15 -130 -4 -144 -35 -285
-73 -340 -26 -37 -27 -35 -12 20 24 92 11 331 -23 428 -43 121 -37 127 20 22
42 -77 47 -81 37 -30 -19 97 -52 198 -73 225 -14 18 1 48 53 105 94 104 92
107 -33 39 -58 -32 -127 -58 -155 -58 -41 -1 -32 10 53 59 68 39 125 93 169
159 76 118 87 124 71 36 -12 -61 -11 -63 18 -26 16 22 35 74 42 115 24 152
112 -10 127 -234 l11 -160 48 156 c55 179 80 171 81 -26 0 -132 -90 -380 -138
-380 -30 0 -82 59 -82 93 0 16 -13 43 -28 58 -16 16 -32 39 -36 52 -5 13 -18
18 -31 10 -16 -10 -10 -42 20 -108 24 -57 45 -155 51 -243 l10 -148 33 68 c93
191 166 257 320 286 l69 13 -79 -68 c-44 -37 -115 -133 -159 -213 -43 -79
-101 -162 -129 -183 -84 -67 -69 -99 26 -55 46 20 80 47 77 60 -8 32 117 220
138 207 80 -50 -41 -464 -180 -615 l-51 -56 74 8 c82 9 244 -54 293 -114 29
-35 -5 -35 -115 0 -104 32 -386 -63 -533 -181 -126 -101 -150 -102 -41 -2 120
109 112 113 -55 21 -135 -74 -165 -84 -142 -47 10 17 3 19 -24 9 -101 -40
-164 -36 -252 16 -97 56 -126 65 -105 30 10 -15 -1 -18 -33 -9 -117 34 -122
30 -31 -29 53 -34 92 -67 86 -73 -6 -6 -36 6 -67 28 -31 22 -87 55 -126 74
l-70 34 72 -68 c104 -98 145 -168 142 -246 -4 -89 18 -89 211 9 162 81 325
123 325 84 0 -12 -21 -22 -47 -22 -45 0 -220 -103 -246 -145 -21 -34 92 1 202
63 107 60 159 121 116 136 -42 16 265 206 332 206 36 0 -304 -335 -355 -350
-70 -21 -13 -48 65 -31 35 8 93 30 130 49 37 19 71 30 77 25 20 -20 -18 -55
-114 -103 -119 -60 -147 -95 -56 -69 93 27 137 21 70 -9 -31 -14 -91 -63 -133
-109 -47 -50 -95 -84 -124 -84 -75 -3 15 -36 103 -38 106 -2 32 -40 -80 -41
-91 0 -205 52 -255 116 -20 25 -25 26 -24 3 1 -66 109 -155 244 -201 l105 -37
-82 0 c-150 -2 -447 192 -492 320 -6 16 -16 24 -22 19 -45 -41 160 -315 285
-380 99 -53 24 -51 -90 2 -93 44 -168 128 -170 191 -2 33 -4 32 -22 -6 -34
-69 41 -209 160 -300 118 -90 126 -110 38 -94 -152 27 -374 160 -345 206 6 10
0 25 -13 33 -15 9 -18 5 -7 -12 11 -17 8 -21 -7 -12 -13 8 -19 21 -14 30 5 8
-3 49 -17 90 l-26 76 -13 -77 c-10 -63 0 -103 60 -223 39 -80 65 -152 57 -160
-9 -8 -20 -2 -25 12 -5 14 -39 64 -76 110 -37 46 -96 136 -131 200 -68 123
-159 214 -213 214 -24 0 -16 -17 29 -65 68 -71 233 -385 221 -420 -4 -12 -34
16 -66 62 -108 154 -113 160 -97 103 8 -27 35 -84 61 -125 26 -41 47 -81 47
-88 0 -32 -128 110 -183 203 -62 106 -63 73 -4 -98 15 -42 27 -119 27 -170 l0
-92 -84 166 -84 166 -23 -92 c-13 -51 -49 -118 -80 -151 -61 -64 -84 -65 -51
-2 27 49 60 343 40 343 -9 0 -29 -47 -47 -105 -59 -196 -91 -207 -91 -30 0 83
8 155 17 158 10 4 24 41 31 83 13 72 12 75 -26 55 -36 -19 -68 -55 -73 -81 -1
-5 -13 -35 -26 -66 -12 -31 -28 -78 -35 -105 -7 -27 -20 -54 -30 -60 -27 -17
-20 91 12 180 66 186 -36 39 -120 -174 -80 -200 -116 -160 -48 53 34 108 -32
50 -144 -128 -17 -26 -23 -25 -44 7 -125 192 -171 233 -136 121 76 -239 32
-246 -66 -10 -87 209 -168 314 -103 132 32 -87 41 -210 14 -179 -18 21 -86
198 -86 223 1 21 -80 106 -99 106 -19 0 2 -146 24 -160 12 -8 26 -212 20 -289
-4 -40 -63 65 -93 164 -18 58 -38 105 -47 105 -20 0 13 -294 40 -343 36 -68 7
-62 -58 12 -34 39 -68 103 -76 142 -16 87 -28 77 -118 -102 l-70 -139 0 92 c0
51 12 128 27 170 59 171 58 204 -4 98 -55 -93 -183 -235 -183 -203 0 7 21 47
47 88 26 41 53 98 61 125 16 57 11 51 -97 -103 -32 -46 -62 -74 -66 -62 -12
35 153 349 221 420 45 48 53 65 29 65 -54 0 -145 -91 -213 -214 -35 -64 -94
-154 -131 -200 -37 -46 -71 -96 -76 -110 -5 -14 -17 -19 -26 -10 -10 9 16 81
57 160 74 143 91 237 54 294 -15 24 -19 20 -20 -20 0 -27 -13 -75 -29 -106
-16 -30 -19 -49 -7 -42 12 8 0 -15 -26 -50 -49 -67 -242 -170 -353 -190 -88
-15 -80 4 38 95 108 82 192 228 166 289 -12 29 -15 29 -24 4 -25 -72 -91 -138
-174 -178 -114 -53 -189 -55 -90 -2 125 65 330 339 285 380 -6 5 -16 -3 -22
-19 -45 -128 -342 -322 -492 -320 l-82 0 105 37 c136 47 243 135 244 202 0 20
-5 22 -14 8 -42 -64 -174 -128 -263 -128 -113 1 -189 38 -82 41 88 2 178 35
103 38 -29 0 -77 34 -124 84 -42 46 -102 95 -133 109 -67 30 -23 36 70 9 91
-26 63 9 -56 69 -96 48 -134 83 -114 103 6 5 40 -6 77 -25 87 -45 187 -67 218
-48 17 11 9 20 -23 30 -48 14 -391 350 -358 350 40 0 130 -45 260 -130 77 -50
169 -97 205 -104 36 -7 137 -47 224 -89 87 -43 170 -77 183 -77 30 0 51 76 23
85 -33 11 43 137 133 222 l82 77 -70 -35 c-38 -18 -99 -56 -135 -82 -36 -27
-65 -41 -65 -31 0 23 55 71 130 112 60 33 45 33 -73 0 -28 -8 -37 -5 -28 10
21 35 -8 26 -105 -30 -88 -52 -151 -56 -252 -16 -27 10 -34 8 -24 -9 23 -38
-4 -28 -166 59 l-152 82 110 -103 c117 -111 102 -115 -30 -10 -147 118 -429
213 -533 181 -110 -35 -144 -35 -115 0 49 60 211 123 293 114 l74 -8 -51 56
c-139 151 -260 565 -180 615 20 12 142 -173 142 -216 0 -25 158 -102 175 -85
4 5 -25 38 -65 74 -39 37 -101 121 -136 187 -35 67 -103 159 -151 206 l-86 85
66 -13 c146 -28 227 -94 304 -249 l47 -95 12 144 c6 78 29 185 51 236 50 116
-4 130 -61 17 -102 -200 -236 -55 -236 252 1 205 25 215 81 34 l48 -156 11
160 c15 239 93 369 131 220 13 -51 34 -103 47 -116z m2379 -31 c122 -113 110
-299 -13 -202 -65 51 -184 51 -250 -1 -46 -37 -54 -38 -82 -9 -58 58 -38 120
63 207 121 104 173 105 282 5z m-176 -492 c-17 -121 -55 -244 -70 -228 -5 4 6
111 24 236 26 183 36 217 48 171 9 -32 8 -112 -2 -179z m128 -20 c16 -110 25
-203 21 -208 -33 -33 -95 306 -75 405 15 70 14 73 54 -197z m-1750 214 c0 -8
-13 -32 -30 -54 -16 -21 -29 -53 -29 -69 0 -17 23 2 51 43 74 109 94 92 38
-32 -59 -127 -80 -262 -58 -366 16 -76 16 -76 32 51 8 71 24 137 35 148 12 12
12 -11 0 -64 -31 -140 60 -388 164 -443 23 -12 37 -27 32 -32 -14 -14 -135 49
-192 100 -45 41 -46 41 -27 3 108 -207 528 -229 728 -37 31 30 57 46 57 35 0
-38 -131 -147 -210 -176 -54 -20 -66 -30 -37 -31 24 0 96 27 160 61 l117 61
-50 -55 -50 -56 57 36 c95 59 82 20 -15 -47 -100 -69 -233 -122 -300 -120 -40
2 -40 2 -3 17 28 11 4 19 -82 27 -156 14 -295 76 -382 170 -38 41 -57 57 -42
35 15 -22 36 -47 47 -55 11 -8 12 -15 2 -15 -10 0 -2 -18 18 -40 61 -68 2 -44
-64 25 -81 86 -106 138 -105 219 l0 66 40 -80 c22 -44 35 -64 30 -44 -37 131
-51 307 -32 409 32 171 6 157 -65 -35 -6 -16 -12 2 -14 40 l-3 70 -30 -67
c-42 -97 -52 -67 -17 49 38 128 99 225 155 247 57 23 75 25 74 6z m3444 -39
c50 -44 160 -326 127 -326 -5 0 -23 29 -38 65 l-29 65 -3 -70 -3 -70 -29 80
c-60 163 -81 115 -37 -85 10 -45 -20 -270 -44 -339 -8 -21 -6 -29 5 -20 10 9
29 45 41 80 l24 64 1 -66 c2 -80 -23 -133 -104 -219 -68 -71 -123 -91 -62 -22
21 24 29 39 18 34 -11 -5 -72 -34 -136 -65 -70 -34 -165 -60 -240 -67 -86 -8
-111 -16 -83 -27 37 -15 37 -15 -3 -17 -67 -2 -200 51 -300 120 -97 67 -110
106 -15 47 l57 -36 -50 56 -50 55 117 -61 c64 -34 136 -61 160 -61 29 1 17 11
-37 31 -75 28 -219 145 -201 164 5 5 37 -14 71 -43 119 -100 305 -134 470 -84
53 16 103 25 111 20 13 -8 139 120 139 141 0 5 -33 -13 -73 -41 -107 -73 -144
-63 -71 19 83 96 111 193 98 349 -13 166 22 116 44 -62 15 -125 15 -125 31
-48 22 104 1 239 -58 366 -57 126 -34 141 41 27 29 -44 56 -80 60 -80 13 0
-37 121 -54 131 -10 6 -18 20 -18 32 0 25 79 2 123 -37z m-2170 -333 l7 -103
-50 139 c-61 170 -64 224 -7 134 26 -39 46 -109 50 -170z m819 37 c-47 -135
-49 -137 -51 -61 -1 79 83 287 94 231 3 -16 -16 -93 -43 -170z m-1871 10 c2
-44 5 -43 21 15 27 92 33 81 22 -45 -13 -163 102 -280 259 -265 97 9 100 8 55
-19 -47 -28 -46 -28 22 -18 l70 11 -50 -31 c-53 -32 -15 -31 70 3 35 15 37 13
13 -16 -78 -97 -332 -120 -440 -40 -114 83 -202 373 -129 422 10 7 25 31 34
52 18 50 50 8 53 -69z m2939 34 c1 -36 4 -38 20 -14 38 58 21 -205 -18 -292
-89 -196 -416 -252 -545 -93 -24 29 -22 31 13 16 65 -26 130 -37 75 -12 -64
28 -56 42 20 30 56 -9 59 -7 20 10 -66 29 -55 39 32 27 159 -21 295 110 278
267 -11 92 14 98 31 7 8 -46 9 -45 13 10 3 54 6 56 23 20 15 -31 17 -26 9 26
-7 41 -3 61 9 54 11 -7 20 -32 20 -56z m-2750 -66 c-65 -27 -102 -9 -84 40 10
26 23 27 78 8 l66 -23 -60 -25z m2578 40 c20 -52 -5 -67 -71 -44 l-62 22 47
26 c62 35 71 34 86 -4z m-1854 -193 c69 -75 86 -127 87 -259 3 -189 30 -233
45 -71 11 118 57 255 85 255 6 0 1 -17 -10 -39 -12 -21 -21 -59 -20 -85 0 -36
10 -27 45 43 24 49 56 93 71 97 22 7 22 0 3 -35 -13 -25 -19 -49 -13 -55 5 -5
25 19 43 53 26 51 43 62 86 57 105 -12 73 -258 -41 -319 -41 -21 -43 -21 -17
10 46 56 12 57 -44 2 -28 -29 -58 -81 -66 -115 -12 -56 -16 -59 -29 -24 -12
30 -17 16 -19 -50 l-3 -90 -28 60 c-27 59 -27 59 -29 10 -4 -109 -79 95 -99
267 -19 167 -55 259 -111 280 -16 6 -7 -20 21 -61 89 -131 51 -149 -47 -22
-62 81 -83 130 -45 107 10 -6 24 -3 31 9 20 33 60 23 104 -25z m1156 25 c7
-12 21 -15 31 -9 38 23 17 -26 -45 -107 -98 -127 -136 -109 -47 22 28 41 37
67 21 61 -56 -21 -92 -113 -111 -280 -20 -172 -95 -376 -99 -267 -2 49 -2 49
-29 -10 l-28 -60 -4 90 c-2 50 -8 73 -13 52 -8 -29 -19 -18 -48 48 -36 79 -97
148 -116 129 -4 -4 5 -23 20 -42 26 -31 24 -31 -17 -10 -114 61 -146 307 -41
319 43 5 60 -6 86 -57 18 -34 38 -58 43 -53 6 6 0 29 -12 52 -25 47 1 57 37
15 12 -15 35 -62 51 -105 26 -73 28 -74 30 -22 0 31 -8 74 -20 95 -11 22 -16
39 -10 39 28 0 74 -137 85 -255 15 -162 42 -118 45 71 1 132 18 184 87 259 44
48 84 58 104 25z m-1309 -472 c-50 -142 -50 -142 -4 -101 36 33 36 30 9 -78
-23 -87 -24 -133 -7 -213 38 -178 5 -153 -51 38 l-28 96 8 -180 8 -180 -49
100 c-49 101 -55 220 -16 320 14 37 11 36 -35 -6 -28 -25 -65 -79 -81 -120
-17 -41 -40 -96 -51 -124 l-21 -50 -2 56 c-2 88 49 186 156 299 54 58 118 144
142 192 60 119 72 93 22 -49z m1381 47 c24 -47 87 -132 141 -190 107 -113 158
-211 156 -299 l-2 -56 -21 50 c-11 28 -34 83 -51 124 -16 41 -53 95 -81 120
-46 42 -49 43 -35 6 39 -100 33 -219 -16 -320 l-49 -100 8 180 8 180 -28 -96
c-56 -191 -89 -216 -51 -38 17 80 16 126 -7 213 -27 108 -27 111 9 78 44 -40
45 -33 10 56 -68 166 -61 231 9 92z m-762 -296 c0 -127 -7 -177 -22 -168 -15
10 -20 -17 -15 -89 9 -128 -12 -132 -38 -7 -20 92 -20 93 -25 25 l-5 -70 -16
80 c-33 157 -19 365 22 340 9 -6 22 8 29 30 35 110 70 39 70 -141z m299 -20
c1 -74 -114 -470 -132 -453 -5 6 0 45 12 87 53 187 82 376 72 463 -11 94 -11
94 18 34 16 -33 30 -92 30 -131z m-2698 -184 c48 -52 58 -78 51 -131 -7 -46
-1 -69 19 -77 16 -6 29 -20 29 -30 0 -11 -11 -13 -25 -5 -20 11 -20 8 0 -13
46 -49 31 -137 -25 -151 -98 -25 -136 52 -79 161 38 73 22 147 -37 171 -24 9
-33 18 -19 19 15 1 9 17 -16 42 -22 22 -35 49 -29 60 23 36 70 19 131 -46z
m5047 48 c6 -9 -20 -52 -59 -95 -80 -91 -79 -84 -34 -210 41 -118 10 -174 -83
-150 -60 15 -69 75 -24 162 16 30 24 83 19 117 -15 93 140 243 181 176z
m-4211 -67 c4 -10 17 -4 30 14 19 25 23 12 23 -67 0 -112 -6 -112 -139 5 -43
39 -86 65 -95 60 -9 -6 -16 -2 -16 8 0 24 187 5 197 -20z m3219 -1 c17 -36 22
-38 23 -10 1 26 18 35 69 35 38 0 83 5 100 12 19 7 32 2 32 -13 0 -14 -5 -20
-12 -14 -6 7 -37 -11 -69 -39 -106 -94 -159 -112 -159 -53 0 27 -9 67 -21 88
-11 22 -12 39 -3 39 10 0 28 -20 40 -45z m-3103 -98 c-28 -63 -30 -64 -31 -16
-1 28 9 62 22 75 37 37 41 14 9 -59z m3047 -21 c0 -20 -9 -36 -20 -36 -11 0
-20 17 -20 38 0 21 -5 55 -12 75 -10 34 -9 34 20 -2 18 -21 32 -55 32 -75z
m-4074 12 c-6 -18 -43 -65 -81 -105 -38 -40 -108 -126 -157 -190 -92 -122
-121 -116 -43 9 91 147 315 374 281 286z m5211 -113 c118 -130 183 -229 183
-276 0 -13 -40 29 -88 94 -49 64 -119 150 -157 190 -69 72 -111 146 -77 134 9
-4 72 -68 139 -142z m-3457 -170 c0 -24 -85 46 -98 81 -57 150 -42 180 27 55
39 -71 71 -132 71 -136z m1678 147 c-19 -77 -89 -168 -111 -145 -3 3 23 60 58
128 75 142 86 145 53 17z m-3657 -314 c-49 -104 -79 -151 -80 -122 -1 64 129
320 152 298 4 -4 -28 -83 -72 -176z m169 97 c-49 -90 -150 -393 -150 -451 0
-19 27 12 59 69 69 119 168 207 317 280 138 68 141 58 37 -97 -94 -140 -201
-381 -224 -501 -23 -124 -43 -67 -27 79 8 75 34 184 57 244 23 59 39 111 35
115 -28 27 -289 -403 -297 -489 -2 -19 -8 7 -15 56 -31 234 131 780 232 780
14 0 5 -33 -24 -85z m5277 -116 c102 -201 145 -429 111 -599 -7 -38 -14 -55
-16 -36 -5 81 -268 517 -295 490 -3 -4 13 -55 35 -115 43 -113 81 -375 56
-390 -7 -5 -20 25 -27 66 -23 120 -130 361 -224 501 -104 155 -101 165 37 97
149 -73 248 -161 317 -280 32 -57 59 -88 59 -69 0 58 -101 362 -151 452 -27
48 -37 84 -23 79 13 -4 67 -92 121 -196z m93 60 c33 -65 59 -138 59 -163 -1
-37 -159 260 -159 298 0 32 50 -36 100 -135z m-4923 -354 c-4 -8 -37 -72 -74
-142 -84 -162 -144 -395 -141 -551 l2 -122 39 127 c44 142 69 155 39 21 -10
-49 -26 -164 -34 -258 l-14 -170 -57 120 c-31 66 -62 152 -69 190 -28 168 -38
179 -75 80 l-33 -90 8 180 c8 193 26 251 121 388 76 109 322 304 288 227z
m4404 -56 c202 -148 301 -349 297 -608 l-1 -131 -32 90 c-35 99 -46 87 -73
-80 -7 -38 -38 -124 -71 -190 l-58 -120 -4 90 c-5 128 -16 216 -39 328 -30
143 -9 136 37 -11 l39 -127 2 122 c3 156 -57 389 -141 551 -37 70 -70 134 -74
142 -14 31 25 13 118 -56z m-4161 -21 c0 -6 -19 -38 -41 -70 -23 -32 -47 -90
-53 -129 l-12 -71 73 43 c75 44 274 105 290 88 6 -5 -9 -29 -32 -54 -106 -113
-154 -270 -159 -525 -3 -132 0 -229 6 -215 6 14 18 21 26 16 8 -5 11 17 6 48
-22 155 98 459 239 599 116 116 142 105 74 -31 -84 -166 -78 -243 8 -115 61
91 184 186 208 162 6 -7 -6 -37 -28 -68 -68 -96 -124 -219 -195 -432 l-69
-204 -1 160 c-1 219 -31 254 -48 56 -26 -299 -123 -763 -154 -732 -28 28 -48
406 -21 406 13 0 23 25 23 54 l0 55 -32 -46 c-20 -28 -36 -107 -43 -206 -6
-89 -18 -149 -26 -134 -42 77 -97 737 -60 737 13 0 19 35 16 89 -13 229 -72
-124 -76 -459 -2 -133 -6 -150 -22 -100 -26 82 -47 550 -25 550 10 0 18 41 19
90 0 50 -2 90 -5 90 -33 0 -106 -326 -107 -482 -1 -157 -43 -31 -54 160 -8
142 -2 195 35 301 57 170 240 450 240 369z m3913 -114 c129 -193 173 -347 162
-556 -14 -243 -45 -287 -62 -85 -14 170 -58 360 -92 394 -16 16 -17 2 -6 -48
21 -95 14 -595 -9 -669 -15 -47 -22 6 -33 232 -13 305 -28 418 -53 418 -8 0
-10 -34 -4 -75 26 -200 -10 -761 -55 -842 -8 -15 -20 45 -26 134 -7 99 -23
178 -43 206 l-32 46 0 -55 c0 -29 10 -54 23 -54 27 0 7 -378 -22 -407 -29 -29
-128 442 -154 736 -16 194 -43 153 -46 -69 l-2 -150 -69 204 c-71 213 -127
336 -195 432 -22 31 -34 61 -28 68 24 24 147 -71 208 -162 86 -128 92 -51 8
115 -68 135 -43 147 74 34 126 -122 211 -309 234 -516 25 -221 51 -184 44 65
-6 255 -54 413 -160 525 -23 25 -38 49 -32 54 16 17 215 -44 290 -88 l73 -43
-12 71 c-6 39 -30 97 -53 129 -44 62 -50 82 -26 82 8 0 53 -57 98 -126z
m-2254 -27 c71 -50 403 -51 478 -3 77 52 105 45 200 -46 104 -100 98 -138 -21
-138 -86 0 -317 -93 -345 -138 -17 -29 -125 -29 -142 0 -28 45 -259 138 -345
138 -118 0 -125 39 -26 138 90 90 129 99 201 49z m-851 -37 c40 -30 31 -90
-14 -90 -39 0 -118 95 -88 107 40 17 63 13 102 -17z m2280 13 c6 -9 -3 -36
-20 -59 -35 -51 -131 -55 -112 -5 23 61 108 103 132 64z m-1948 -141 c0 -45
208 -241 317 -299 157 -84 165 -80 50 26 -118 109 -83 120 104 31 79 -38 157
-95 208 -153 l81 -93 81 93 c80 91 293 213 370 213 45 0 -26 -84 -121 -143
-99 -61 -15 -42 112 26 111 59 264 199 313 287 32 57 47 29 60 -109 8 -92 3
-130 -20 -156 -17 -19 -36 -55 -44 -80 -18 -58 28 -61 79 -5 20 22 30 40 23
40 -8 0 1 29 20 65 18 36 44 106 57 155 l23 90 43 -83 c115 -223 289 -1332
186 -1187 -12 17 -22 58 -22 93 0 67 -74 448 -90 464 -16 16 -11 -55 13 -189
25 -132 -3 -612 -41 -712 -47 -126 -100 364 -93 854 6 349 -5 465 -38 411 -10
-15 -20 -133 -22 -260 -4 -183 -18 -285 -67 -477 -42 -165 -61 -287 -60 -379
l2 -135 19 100 c26 144 104 366 113 325 37 -178 -198 -815 -301 -815 -43 0 -1
590 60 856 32 135 61 241 66 236 5 -5 7 38 5 95 -3 85 -1 93 13 43 14 -50 17
-40 18 60 2 116 -45 268 -92 297 -12 7 -18 -69 -15 -203 4 -194 -132 -941
-205 -1124 -19 -45 -49 449 -38 620 11 186 54 365 73 310 15 -42 49 113 72
328 11 102 26 142 75 200 48 55 51 63 13 32 -133 -109 -159 -164 -162 -346 -2
-73 -15 -152 -29 -174 -14 -22 -37 -78 -50 -125 -14 -47 -29 -82 -33 -77 -5 4
15 87 43 184 32 112 50 221 49 297 -2 67 -7 103 -11 81 -5 -22 -22 -67 -38
-100 -58 -124 -126 -318 -98 -281 43 57 35 11 -11 -64 -43 -71 -59 -78 -96
-41 -35 35 -30 83 6 69 26 -10 27 -6 2 33 -47 73 -67 251 -24 216 38 -32 120
28 145 106 13 41 13 41 29 2 15 -39 15 -39 17 3 3 98 -169 40 -297 -100 -66
-72 -93 -67 -203 36 -140 131 -318 153 -247 31 l28 -50 -12 60 c-13 58 -11 57
50 -25 66 -90 112 -108 130 -50 6 19 7 -13 2 -73 -5 -59 -23 -128 -39 -154
-27 -41 -27 -45 -1 -35 39 15 40 -40 1 -72 -16 -14 -39 -19 -50 -11 -32 19
-85 130 -63 130 11 0 -3 68 -31 150 -28 83 -58 145 -68 140 -9 -6 -20 19 -25
55 -4 38 -9 15 -11 -56 -2 -79 15 -182 48 -297 28 -97 48 -180 43 -184 -4 -5
-19 30 -33 77 -13 47 -38 106 -54 131 -16 25 -27 61 -24 80 21 155 -38 334
-134 407 l-59 44 53 -58 c40 -45 56 -89 65 -179 19 -189 56 -356 73 -329 20
33 61 -156 72 -331 10 -163 -20 -654 -38 -610 -30 75 -206 871 -195 880 7 6 8
114 1 240 -12 245 -43 262 -102 58 -25 -87 -24 -266 1 -208 14 33 17 27 19
-30 1 -38 29 -187 62 -330 65 -279 109 -870 64 -870 -100 0 -311 554 -303 800
2 81 59 -60 100 -250 l35 -160 2 138 c1 94 -19 211 -61 370 -50 190 -62 276
-65 476 -4 233 -15 291 -48 258 -8 -9 -16 -219 -17 -469 -1 -448 -11 -597 -52
-753 -47 -182 -123 457 -80 668 25 117 32 216 14 199 -18 -18 -90 -401 -90
-478 0 -42 -10 -83 -23 -91 -92 -56 68 969 187 1199 l43 83 23 -90 c13 -49 39
-119 57 -155 19 -36 27 -65 19 -66 -22 -1 74 -79 96 -79 31 0 20 52 -22 105
-41 52 -50 139 -27 253 11 56 47 89 47 44z m-418 -284 c-36 -132 -107 -509
-108 -572 0 -13 -6 -21 -12 -17 -18 11 -2 -570 18 -644 25 -95 -9 -80 -46 20
-64 178 -77 240 -73 351 2 63 2 146 0 184 -6 108 -38 16 -41 -120 -10 -362
-66 -332 -65 34 1 123 9 236 18 250 9 14 13 45 10 69 -13 100 144 527 194 527
19 0 -53 -391 -85 -460 -26 -55 -20 -160 9 -160 11 0 20 16 21 35 0 19 4 53 8
75 4 22 13 72 20 110 23 135 146 491 163 473 5 -4 -10 -74 -31 -155z m2425
-88 c28 -88 62 -218 75 -290 27 -151 56 -218 59 -140 1 28 5 75 9 105 4 32 -2
52 -15 50 -12 -3 -37 78 -58 195 -20 110 -41 211 -46 225 -30 77 37 7 87 -92
125 -247 190 -755 128 -1003 -17 -67 -42 78 -45 254 0 68 -10 129 -21 136 -22
13 -28 -54 -21 -224 3 -58 -6 -139 -19 -180 -49 -159 -86 -246 -104 -246 -10
0 -11 11 -3 25 21 33 45 702 26 715 -8 6 -30 100 -48 210 -18 110 -51 265 -72
345 -67 249 -19 189 68 -85z m-1154 -520 c-14 121 18 170 34 53 8 -59 46 -210
84 -335 87 -286 135 -588 93 -588 -9 0 -27 63 -40 141 -13 77 -39 174 -57 215
-18 41 -32 80 -31 87 2 7 -8 22 -22 34 -19 16 -23 1 -17 -63 6 -62 12 -74 23
-45 31 89 81 -483 52 -600 -33 -130 -134 135 -162 429 -7 72 -18 150 -23 172
-8 33 -6 34 11 10 28 -39 26 -14 -6 120 -28 115 -38 110 -69 -35 -12 -56 -12
-80 1 -72 12 7 16 -3 10 -25 -6 -21 -17 -98 -24 -170 -28 -294 -129 -559 -162
-429 -13 55 2 463 22 581 l10 60 -29 -60 c-15 -33 -39 -123 -53 -200 -26 -150
-58 -217 -58 -119 1 126 43 338 109 557 38 125 76 276 84 335 16 122 47 67 34
-63 -5 -54 2 -43 34 50 22 66 45 134 51 150 7 18 31 -27 59 -110 27 -77 45
-113 42 -80z m-53 -1230 c0 -27 -13 -40 -40 -40 -27 0 -40 13 -40 40 0 27 13
40 40 40 27 0 40 -13 40 -40z"/>
<path d="M1240 7803 c0 -38 142 -142 224 -164 168 -45 297 -129 561 -364 161
-143 187 -147 66 -10 -155 174 -311 293 -511 388 -104 50 -224 108 -265 130
-41 22 -75 31 -75 20z"/>
<path d="M2471 7195 c16 -78 20 -83 48 -66 14 9 11 32 -10 72 -40 77 -56 75
-38 -6z"/>
<path d="M3128 6192 c16 -60 51 -114 113 -175 49 -48 115 -118 146 -157 l56
-70 -54 100 c-143 262 -295 439 -261 302z"/>
<path d="M3387 5983 c7 -55 143 -323 165 -323 5 0 -1 19 -13 42 -12 23 -18 46
-12 52 6 5 29 -28 53 -74 24 -46 48 -79 55 -72 6 7 29 -16 49 -50 73 -120 60
-39 -20 126 -92 188 -156 282 -133 196 9 -34 -7 -19 -51 45 -80 119 -101 133
-93 58z"/>
<path d="M7689 7779 c-32 -21 -104 -53 -159 -71 -206 -67 -432 -227 -621 -442
-125 -142 -109 -149 34 -15 187 176 460 366 545 380 102 17 168 50 230 117 62
66 48 82 -29 31z"/>
<path d="M6499 7209 c-32 -52 -38 -78 -22 -94 16 -16 24 -14 31 7 4 15 18 57
29 93 27 84 17 82 -38 -6z"/>
<path d="M6332 6644 c-8 -13 -9 -24 -2 -24 6 0 -20 -28 -59 -62 -39 -34 -70
-72 -69 -85 1 -15 5 -14 11 2 6 14 20 19 32 12 12 -8 15 -4 7 10 -8 13 -2 23
16 23 17 0 53 23 81 51 51 51 68 82 33 60 -10 -6 -22 0 -27 13 -6 19 -11 19
-23 0z"/>
<path d="M5769 6145 c-40 -52 -81 -96 -91 -97 -10 -2 -25 -5 -33 -8 -8 -3 -21
-4 -29 -3 -8 2 -39 -31 -69 -72 -75 -102 -96 -123 -81 -80 39 111 -124 -154
-174 -282 -40 -105 -30 -129 20 -45 19 33 42 55 51 50 8 -5 38 34 65 86 52 99
67 107 32 17 -35 -92 -5 -54 78 101 87 160 94 178 62 158 -11 -7 -14 2 -7 21
9 23 17 25 27 9 10 -16 19 -13 28 11 7 19 18 29 25 23 6 -6 -17 -61 -51 -120
-82 -144 -79 -169 5 -43 37 55 104 131 148 170 48 42 85 96 94 134 20 93 -14
82 -100 -30z"/>
<path d="M2018 5344 c12 -23 39 -54 59 -68 20 -14 43 -53 51 -86 27 -110 114
-232 208 -292 138 -88 145 -71 21 57 -113 117 -177 200 -177 231 0 9 32 -17
70 -58 79 -84 116 -80 54 6 -85 119 -336 303 -286 210z"/>
<path d="M6900 5325 c-131 -86 -310 -304 -201 -246 22 12 56 45 74 72 18 28
37 46 42 41 15 -15 -72 -132 -182 -247 -112 -116 -108 -129 18 -56 88 52 195
198 220 299 8 32 43 83 77 114 68 63 36 78 -48 23z"/>
<path d="M3303 4702 c-34 -49 -63 -80 -63 -69 0 10 14 39 32 64 18 25 27 50
22 56 -20 20 -114 -168 -132 -263 -22 -118 -6 -167 81 -239 37 -31 88 -88 114
-128 l46 -73 -10 60 c-24 151 -63 240 -103 240 -44 0 -50 100 -10 167 13 23
15 2 6 -65 -9 -72 -6 -94 11 -84 13 8 24 43 25 78 2 60 3 59 28 -26 30 -105
34 -96 31 80 -1 72 6 159 17 195 11 36 12 61 2 55 -9 -6 -20 1 -25 14 -4 14
-37 -14 -72 -62z"/>
<path d="M5630 4740 c12 -49 11 -49 -22 -10 -33 40 -33 40 -17 0 9 -22 18
-115 20 -206 3 -92 12 -173 20 -180 8 -8 11 -5 5 6 -6 11 1 52 15 90 43 117
36 -6 -11 -190 -51 -199 -50 -217 5 -128 25 40 78 101 118 136 69 59 135 182
98 182 -9 0 -23 33 -30 74 -17 90 -56 169 -103 207 -32 27 -32 25 -1 -41 33
-68 33 -68 -2 -21 -83 115 -108 137 -95 81z m110 -305 c0 -30 8 -55 19 -55 10
0 22 25 27 55 8 53 8 53 11 -8 4 -90 -68 -109 -85 -22 -19 96 -15 151 8 115
11 -16 20 -55 20 -85z"/>
<path d="M4865 4604 c-67 -100 -133 -242 -119 -257 5 -5 51 69 103 164 105
194 112 234 16 93z"/>
<path d="M4152 4505 c54 -102 101 -177 104 -166 10 30 -115 274 -162 315 -27
24 -7 -27 58 -149z"/>
<path d="M2460 4550 c0 -51 302 -215 335 -182 15 16 -163 135 -219 146 -29 6
-58 23 -64 38 -14 37 -52 36 -52 -2z"/>
<path d="M3028 5450 c19 -106 151 -194 282 -188 22 1 -2 13 -53 27 -109 30
-148 51 -124 69 9 6 -13 43 -49 80 l-66 68 10 -56z"/>
<path d="M5941 5471 c-14 -16 -19 -37 -13 -47 18 -30 -61 -88 -173 -126 -70
-25 -88 -37 -55 -37 120 0 259 96 269 188 6 59 4 61 -28 22z"/>
<path d="M2840 2987 c0 -137 10 -134 28 8 9 68 6 105 -7 105 -12 0 -21 -49
-21 -113z"/>
<path d="M6133 3026 c12 -130 27 -135 27 -9 0 57 -8 103 -18 103 -9 0 -13 -42
-9 -94z"/>
<path d="M5486 2730 c0 -66 4 -91 8 -55 5 36 5 90 0 120 -4 30 -8 1 -8 -65z"/>
</g>
</svg>
