<svg xmlns="http://www.w3.org/2000/svg" width="606" height="455" viewBox="0 0 606 455"><g fill="none" fill-rule="evenodd" transform="translate(0 2)"><path fill="#A1D7DC" d="M587.75 253.65H568.3a18.21 18.21 0 0 1-18.21-18.2v-8.31a18.2 18.2 0 0 0-18.21-18.21h-32.5a18.26 18.26 0 0 1-18.22-18.21v-6.2a20.3 20.3 0 0 0-20.3-20.31h-4.02a20.3 20.3 0 0 1-20.3-20.3v-4.12a20.3 20.3 0 0 1 20.3-20.3h7.5c10 0 18.2-8.2 18.2-18.21v-6.21a20.3 20.3 0 0 0-20.3-20.3h-9.6a20.3 20.3 0 0 1-16.1-19.86v-4.12a20.3 20.3 0 0 0-20.3-20.3h-225.2a20.3 20.3 0 0 0-20.3 20.3V57c0 8.67-6.13 15.96-14.28 17.77H18.36a18.26 18.26 0 0 0-18.2 18.2v8.3c0 10.03 8.19 18.22 18.2 18.22h24.18c10.01 0 18.2 8.2 18.2 18.2V146c0 10.01-8.19 18.2-18.2 18.2a18.26 18.26 0 0 0-18.21 18.22v8.3c0 10.02 8.2 18.21 18.2 18.21h56.98a18.18 18.18 0 0 1 18.18 18.18v26.54h-5.9a18.21 18.21 0 0 0-18.22 18.21v8.3a18.21 18.21 0 0 0 18.21 18.21h4.18a18.21 18.21 0 0 1 18.2 18.21v8.3a18.21 18.21 0 0 1-18.2 18.21h-70a18.2 18.2 0 0 0-18.21 18.21v8.3a18.2 18.2 0 0 0 18.2 18.21H62.9a18.2 18.2 0 0 1 18.2 18.21v8.3a18.21 18.21 0 0 0 18.22 18.21h228a18.21 18.21 0 0 0 18.21-18.2v-7.4c0-10.56-7.07-19.12-17.17-19.12h-15.57a18.21 18.21 0 0 1-18.2-18.2v-8.3a18.21 18.21 0 0 1 18.2-18.22h228.96a18.21 18.21 0 0 0 18.2-18.2v-8.3a18.21 18.21 0 0 1 18.22-18.22h9.58a18.21 18.21 0 0 0 18.21-18.2v-8.31a18.21 18.21 0 0 0-18.2-18.21"/><path fill="#DCE5E4" d="M198.1 261.14c15.28 0 27.46 8.95 27.66 27.66.13 12.23-6.82 27.82-22.1 27.82l-4.39-32.73-1.17-22.75"/><path stroke="#0A0A08" stroke-width="3" d="M198.1 261.14c15.28 0 27.46 8.95 27.66 27.66.13 12.23-6.82 27.82-22.1 27.82l-4.39-32.73-1.17-22.75"/><path fill="#FFFFFF" d="M217.33 452.77L195.51 236.5l5.46-3.63a29.76 29.76 0 0 0 13.23-22.74l.32-4.74h35.07c6.98 0 13-5.37 13.32-12.34a12.96 12.96 0 0 0-12.95-13.6h-56.18v-19h70.87a15.56 15.56 0 0 0 0-31.12h-70.87v-13.83h70.5c8.44 0 15.62-6.56 15.92-14.99a15.56 15.56 0 0 0-15.55-16.12H172.1v40.88h-29.27v-15.4a25.49 25.49 0 0 0-25.5-25.48 10.44 10.44 0 0 0-10.43 10.43v101.44c0 5.9 2.01 11.64 5.7 16.25l15.04 18.8-4.96 221.45"/><path stroke="#0A0A08" stroke-width="3" d="M217.33 452.77L195.51 236.5l5.46-3.63a29.76 29.76 0 0 0 13.23-22.74l.32-4.74h35.07c6.98 0 13-5.37 13.32-12.34a12.96 12.96 0 0 0-12.95-13.6h-56.18v-19h70.87a15.56 15.56 0 0 0 0-31.12h-70.87v-13.83h70.5c8.44 0 15.62-6.56 15.92-14.99a15.56 15.56 0 0 0-15.55-16.12H172.1v40.88h-29.27v-15.4a25.49 25.49 0 0 0-25.5-25.48 10.44 10.44 0 0 0-10.43 10.43v101.44c0 5.9 2.01 11.64 5.7 16.25l15.04 18.8-4.96 221.45m20.15-319.3h-16.03"/><path fill="#FFFFFF" d="M238.61 204.25h-92.26a11.35 11.35 0 0 1-11.34-11.35V11.62C135 5.35 140.09.27 146.35.27h92.26c6.27 0 11.35 5.08 11.35 11.35V192.9c0 6.27-5.08 11.34-11.35 11.34"/><path stroke="#0A0A08" stroke-width="3" d="M238.61 204.25h-92.26a11.35 11.35 0 0 1-11.34-11.35V11.62C135 5.35 140.09.27 146.35.27h92.26c6.27 0 11.35 5.08 11.35 11.35V192.9c0 6.27-5.08 11.34-11.35 11.34z"/><path fill="#DCE5E4" d="M238.61.27h-11.55c6.27 0 11.35 5.08 11.35 11.35V192.9c0 6.26-5.08 11.34-11.35 11.34h11.55c6.27 0 11.35-5.08 11.35-11.34V11.62c0-6.27-5.08-11.35-11.35-11.35"/><path stroke="#0A0A08" stroke-width="3" d="M238.61.27h-11.55c6.27 0 11.35 5.08 11.35 11.35V192.9c0 6.26-5.08 11.34-11.35 11.34h11.55c6.27 0 11.35-5.08 11.35-11.34V11.62c0-6.27-5.08-11.35-11.35-11.35z"/><path stroke="#0A0A08" stroke-width="3" d="M174.9 16.4h23.62" stroke-linecap="round" stroke-linejoin="round"/><polygon fill="#FFFFFF" points="141.565 176.012 231.853 176.012 231.853 30.149 141.565 30.149"/><polygon stroke="#0A0A08" stroke-width="3" points="141.565 176.012 231.853 176.012 231.853 30.149 141.565 30.149"/><path fill="#DCE5E4" d="M202.76 303.06h-79.79a5.71 5.71 0 0 1-5.7-5.7v-17.1a5.71 5.71 0 0 1 5.7-5.72h79.8a5.71 5.71 0 0 1 5.7 5.71v17.1a5.71 5.71 0 0 1-5.7 5.71"/><path stroke="#0A0A08" stroke-width="3" d="M202.76 303.06h-79.79a5.71 5.71 0 0 1-5.7-5.7v-17.1a5.71 5.71 0 0 1 5.7-5.72h79.8a5.71 5.71 0 0 1 5.7 5.71v17.1a5.71 5.71 0 0 1-5.7 5.71z"/><path fill="#FFFFFF" d="M145.38 274.54v28.52"/><path stroke="#0A0A08" stroke-width="3" d="M145.38 274.54v28.52"/><path fill="#FFFFFF" d="M495.4 452.77v-64.74l11.7-83.76c.62-4.4-1.21-8.77-4.77-11.42l-34.45-25.61H378.7a15.26 15.26 0 0 0-15.25 15.81c.3 8.27 7.35 14.7 15.62 14.7h51.46v4.72H378.7a15.26 15.26 0 0 0 0 30.51h51.83v4.19H393.1a12.71 12.71 0 0 0-12.7 13.33c.32 6.84 6.21 12.1 13.06 12.1h40.82l-5.46 30.51-6.07 59.66"/><path stroke="#0A0A08" stroke-width="3" d="M495.4 452.77v-64.74l11.7-83.76c.62-4.4-1.21-8.77-4.77-11.42l-34.45-25.61H378.7a15.26 15.26 0 0 0-15.25 15.81c.3 8.27 7.35 14.7 15.62 14.7h51.46v4.72H378.7a15.26 15.26 0 0 0 0 30.51h51.83v4.19H393.1a12.71 12.71 0 0 0-12.7 13.33c.32 6.84 6.21 12.1 13.06 12.1h40.82l-5.46 30.51-6.07 59.66"/><path fill="#FFFFFF" d="M348.8 56.2c-1.07-14.8-13.81-26.05-28.65-26.05H232.1V176h90.02l-1.37-89.6a28.13 28.13 0 0 0 28.05-30.2"/><path stroke="#0A0A08" stroke-width="3" d="M348.8 56.2c-1.07-14.8-13.81-26.05-28.65-26.05H232.1V176h90.02l-1.37-89.6a28.13 28.13 0 0 0 28.05-30.2z"/><polygon fill="#949591" points="241.184 94.434 342.123 94.434 342.123 66.715 241.184 66.715"/><path fill="#DCE5E4" d="M320.74 86a28.13 28.13 0 0 0 28.13-28.14v182.48h-75.18V114.12A28.13 28.13 0 0 1 301.82 86h18.92"/><path stroke="#0A0A08" stroke-width="3" d="M320.74 86a28.13 28.13 0 0 0 28.13-28.14v182.48h-75.18V114.12A28.13 28.13 0 0 1 301.82 86h18.92z"/><path fill="#FFFFFF" d="M302.26 142.7a28.57 28.57 0 0 1-28.56-28.57v174.34a28.57 28.57 0 0 0 28.56 28.57h151.38V142.7H302.26"/><path stroke="#0A0A08" stroke-width="3" d="M302.26 142.7a28.57 28.57 0 0 1-28.56-28.57v174.34a28.57 28.57 0 0 0 28.56 28.57h151.38V142.7H302.26z"/><polygon fill="#53A3D8" points="141.565 66.715 232.089 66.715 232.089 30.489 141.565 30.489"/><polygon stroke="#0A0A08" stroke-width="3" points="141.565 66.715 232.089 66.715 232.089 30.489 141.565 30.489" stroke-linejoin="round"/><path fill="#0A0A08" d="M153.03 40.95h3.55l3.99 7.6 1.53 3.39h.09l-.28-2.73c-.11-1-.17-1.95-.17-2.86v-5.4h3.3v15.3h-3.56l-3.99-7.63-1.5-3.33h-.1c.08.85.18 1.76.29 2.73.1.97.16 1.9.16 2.81v5.43h-3.31V40.95"/><polyline fill="#0A0A08" points="171.841 40.946 181.448 40.946 181.448 43.857 175.317 43.857 175.317 46.934 180.531 46.934 180.531 49.823 175.317 49.823 175.317 53.347 181.682 53.347 181.682 56.259 171.841 56.259 171.841 40.946"/><path fill="#0A0A08" d="M186.4 40.95h3.55l1.06 7.16.31 2.4.32 2.44h.1a250.3 250.3 0 0 1 .89-4.84l1.64-7.16h2.94l1.67 7.16.45 2.38.46 2.46h.1a173.28 173.28 0 0 1 .6-4.84l1.06-7.16h3.31l-2.72 15.3h-4.34l-1.5-6.94a46.3 46.3 0 0 1-.62-3.55h-.1l-.27 1.75c-.1.6-.2 1.2-.33 1.8l-1.46 6.95h-4.27l-2.85-15.31m24.78 11.01c.55.47 1.16.85 1.81 1.15.66.3 1.3.45 1.95.45.72 0 1.26-.14 1.61-.4.35-.27.53-.63.53-1.08a1.2 1.2 0 0 0-.6-1.07c-.2-.13-.43-.26-.7-.38l-.9-.38-1.98-.85a5.66 5.66 0 0 1-2.15-1.5 3.98 3.98 0 0 1-.95-2.68c0-.63.13-1.22.4-1.77.28-.56.66-1.05 1.14-1.46a5.25 5.25 0 0 1 1.71-.98 7.13 7.13 0 0 1 7.13 1.67l-1.74 2.19c-.5-.4-1-.7-1.51-.9a4.33 4.33 0 0 0-1.68-.32c-.6 0-1.07.12-1.42.36-.36.24-.53.58-.53 1.02a1 1 0 0 0 .17.6c.12.17.29.31.5.45.2.13.46.26.75.37l.93.39 1.95.8c.94.38 1.68.9 2.22 1.55.53.66.8 1.53.8 2.6a4.37 4.37 0 0 1-1.51 3.33c-.5.43-1.1.78-1.8 1.03-.72.26-1.53.4-2.44.4a8.57 8.57 0 0 1-5.68-2.22l2-2.37"/><path stroke="#949591" stroke-width="3" d="M147.59 83.24h34.71M147.59 97h34.71m58.88-52.89h90.24m-90.24 13.75h100.94M147.6 111.53h34.71m-34.71 13.75h34.71m102.4 33.45h70.7m-70.7 13.75h70.7m-70.7 14.54h70.7m-70.7 73.38h116.84M284.7 274.15h116.84M292.7 303.06h98.84M284.7 288.68h66.84m60.93-28.28h31.03m-31.03 13.75h31.03m-31.03 14.54h31.03m-158.8-87.92h70.7m17.4-42.04h70.7m-70.7 13.75h70.7m-70.7 14.54h70.7m-70.7 13.75h70.7M196.52 100.72h26.94m-26.94 12.68h26.94m-26.94 11.88h26.94m17.72 15.97h26.95m-26.95 12.67h26.95m-26.95 11.89h26.95m-26.95-62.6h26.95m-26.95 12.67h26.95m-26.95 11.89h26.95" stroke-linejoin="round"/><polygon fill="#52B36F" points="194.458 90.703 225.184 90.703 225.184 79.755 194.458 79.755"/><polygon fill="#EED55E" points="147.59 168.91 225.184 168.91 225.184 138.152 147.59 138.152"/><path stroke="#0A0A08" stroke-width="3" d="M401.54 127.77h104.54m-41.96 24h92.17M301.37 3.73h84.13M348.36 20.5h51.39"/><polygon fill="#52B36F" points="284.703 248.767 355.408 248.767 355.408 213.081 284.703 213.081"/><polygon fill="#5FAAB7" points="372.795 248.767 443.5 248.767 443.5 213.081 372.795 213.081"/><path fill="#FFFFFF" d="M306 226.27a6.33 6.33 0 1 1-12.67 0 6.33 6.33 0 0 1 12.67 0"/><path stroke="#0A0A08" stroke-width="3" d="M306 226.27a6.33 6.33 0 1 1-12.67 0 6.33 6.33 0 0 1 12.67 0z"/><path fill="#FFFFFF" d="M308.34 243.1H291a6.86 6.86 0 0 1 6.86-6.86h3.62a6.86 6.86 0 0 1 6.86 6.86"/><path stroke="#0A0A08" stroke-width="3" d="M308.34 243.1H291a6.86 6.86 0 0 1 6.86-6.86h3.62a6.86 6.86 0 0 1 6.86 6.86z"/><path stroke="#FFFFFF" stroke-width="3" d="M316.5 224.1h29.83m-29.83 10.17h16.67m80.66-10.17h24.67m-23.67 10.17h19.67" stroke-linejoin="round"/><path fill="#FFFFFF" d="M407.15 242.1l-3.77-7.8a10.86 10.86 0 1 0-4.46 5.76l8.23 2.04"/><path stroke="#0A0A08" stroke-width="3" d="M407.15 242.1l-3.77-7.8a10.86 10.86 0 1 0-4.46 5.76l8.23 2.04z" stroke-linejoin="round"/><polyline fill="#CD534E" points="117.262 452.767 117.262 334.434 210.474 334.434 229.063 452.767"/><polyline stroke="#0A0A08" stroke-width="3" points="117.262 452.767 117.262 334.434 210.474 334.434 229.063 452.767" stroke-linejoin="round"/><path fill="#FFFFFF" d="M483.04 323.35a11.19 11.19 0 0 1-10.92-11.18v-54.34a16.16 16.16 0 0 0-32.33 0v55.39l-8.28 7.57a47.92 47.92 0 0 0-10.42 57.07l7.74 15.25"/><path stroke="#0A0A08" stroke-width="3" d="M483.04 323.35a11.19 11.19 0 0 1-10.92-11.18v-54.34a16.16 16.16 0 0 0-32.33 0v55.39l-8.28 7.57a47.92 47.92 0 0 0-10.42 57.07l7.74 15.25"/></g></svg>